# Blender v2.76 (sub 0) OBJ File: ''
# www.blender.org
o Plane
v 1.500000 -0.000000 1.250000
v 1.500000 -0.000000 1.500000
v 1.250000 -0.000000 1.500000
v -1.250000 -0.000000 1.500000
v -1.500000 -0.000000 1.500000
v -1.500000 -0.000000 1.250000
v -1.500000 0.000000 -1.250000
v -1.500000 0.000000 -1.500000
v -1.250000 0.000000 -1.500000
v 1.250000 0.000000 -1.500000
v 1.500000 0.000000 -1.500000
v 1.500000 0.000000 -1.250000
v 0.250000 6.000000 0.500000
v 0.500000 6.000000 0.500000
v 0.500000 6.000000 0.250000
v -0.500000 6.000000 0.250000
v -0.500000 6.000000 0.500000
v -0.250000 6.000000 0.500000
v -0.250000 6.000000 -0.500000
v -0.500000 6.000000 -0.500000
v -0.500000 6.000000 -0.250000
v 0.500000 6.000000 -0.250000
v 0.500000 6.000000 -0.500000
v 0.250000 6.000000 -0.500000
v -0.450000 4.800000 0.450000
v -0.250000 6.000000 0.250000
v 0.450000 4.800000 0.450000
v 0.450000 4.800000 0.700000
v 0.450000 4.800000 -0.450000
v 0.250000 6.000000 -0.250000
v -0.450000 4.800000 -0.450000
v -0.250000 6.000000 -0.250000
v 0.250000 6.000000 0.250000
v -0.450000 4.800000 -0.700000
v 0.900000 3.600000 0.650000
v 0.700000 4.800000 0.450000
v 0.700000 4.800000 -0.450000
v -0.700000 4.800000 0.450000
v -0.500000 0.000000 -0.500000
v 0.500000 0.000000 -0.500000
v 0.500000 -0.000000 0.500000
v 0.250000 0.250000 0.250000
v 0.250000 0.250000 -0.250000
v -0.250000 0.250000 -0.250000
v -0.250000 0.250000 0.250000
v -0.500000 -0.000000 0.500000
v 0.000000 6.250000 -0.250000
v 0.176777 6.250000 -0.176777
v 0.176777 0.250000 -0.176777
v 0.250000 6.250000 0.000000
v 0.250000 0.250000 0.000000
v 0.176777 6.250000 0.176777
v 0.176777 0.250000 0.176777
v 0.000000 6.250000 0.250000
v 0.000000 0.250000 0.250000
v -0.176777 6.250000 0.176777
v -0.176777 0.250000 0.176777
v -0.250000 6.250000 0.000000
v -0.250000 0.250000 0.000000
v -0.176777 6.250000 -0.176777
v 0.000000 0.250000 -0.250000
v -0.176777 0.250000 -0.176777
v 0.850000 2.400000 0.850000
v 0.650000 3.600000 0.650000
v 0.850000 2.400000 1.100000
v 0.650000 3.600000 0.900000
v 0.850000 2.400000 -0.850000
v 1.100000 2.400000 -0.850000
v 0.900000 3.600000 -0.650000
v 0.650000 3.600000 -0.650000
v 0.650000 3.600000 -0.900000
v 0.450000 4.800000 -0.700000
v -0.850000 2.400000 -0.850000
v -0.850000 2.400000 -1.100000
v -0.650000 3.600000 -0.900000
v -0.650000 3.600000 -0.650000
v -0.900000 3.600000 -0.650000
v -0.700000 4.800000 -0.450000
v -0.850000 2.400000 0.850000
v -1.100000 2.400000 0.850000
v -0.900000 3.600000 0.650000
v -0.650000 3.600000 0.650000
v -0.650000 3.600000 0.900000
v -0.450000 4.800000 0.700000
v 0.283333 2.400000 -0.850000
v 0.850000 2.400000 -1.100000
v 0.850000 2.400000 -0.283333
v 0.283333 2.400000 0.850000
v -1.100000 2.400000 -0.283333
v -0.850000 2.400000 -0.283333
v 1.100000 2.400000 0.850000
v -1.100000 2.400000 -0.850000
v 1.250000 -0.000000 1.250000
v -0.850000 2.400000 1.100000
v -1.250000 -0.000000 1.250000
v -1.250000 0.000000 -1.250000
v 1.250000 0.000000 -1.250000
v -0.850000 2.400000 0.283333
v -1.100000 2.400000 0.283333
v -0.283333 2.400000 1.100000
v -0.283333 2.400000 0.850000
v 0.283333 2.400000 1.100000
v 1.100000 2.400000 0.283333
v 0.850000 2.400000 0.283333
v 1.100000 2.400000 -0.283333
v -0.283333 2.400000 -0.850000
v -0.283333 2.400000 -1.100000
v 0.283333 2.400000 -1.100000
v 0.156250 0.656250 -0.500000
v 0.156250 0.343750 -0.500000
v -0.156250 0.343750 -0.500000
v -0.156250 0.656250 0.500000
v -0.156250 0.343750 0.500000
v 0.156250 0.343750 0.500000
v 0.156250 0.656250 0.156250
v 0.500000 0.656250 0.156250
v 0.500000 0.656250 -0.156250
v -0.156250 0.656250 -0.156250
v -0.500000 0.656250 -0.156250
v -0.500000 0.656250 0.156250
v -0.500000 0.343750 0.156250
v -0.500000 0.343750 -0.156250
v -0.156250 0.343750 -0.156250
v 0.500000 0.343750 -0.156250
v 0.500000 0.343750 0.156250
v 0.156250 0.343750 0.156250
v -0.156250 0.656250 -0.500000
v 0.156250 0.656250 -0.156250
v 0.156250 0.343750 -0.156250
v -0.156250 0.343750 0.156250
v 0.156250 0.656250 0.500000
v -0.156250 0.656250 0.156250
v -0.125000 7.000000 0.000000
v 0.000000 7.000000 0.125000
v 0.000000 7.000000 -0.125000
v 0.125000 6.250000 0.000000
v 0.125000 7.000000 0.000000
v 0.088388 7.000000 0.088388
v 0.000000 6.250000 -0.125000
v 0.088388 7.000000 -0.088388
v -0.088388 6.250000 -0.088388
v -0.088388 7.000000 -0.088388
v -0.088388 6.250000 0.088388
v -0.088388 7.000000 0.088388
v 0.088388 6.250000 0.088388
v 0.088388 6.250000 -0.088388
v -0.125000 6.250000 0.000000
v 0.000000 6.250000 0.125000
v 0.500000 6.000000 0.250000
v 0.500000 6.000000 0.500000
v 0.250000 6.000000 0.500000
v -0.250000 6.000000 0.500000
v -0.500000 6.000000 0.500000
v -0.500000 6.000000 0.250000
v -0.500000 6.000000 -0.250000
v -0.500000 6.000000 -0.500000
v -0.250000 6.000000 -0.500000
v 0.250000 6.000000 -0.500000
v 0.500000 6.000000 -0.500000
v 0.500000 6.000000 -0.250000
v 0.250000 6.000000 0.250000
v -0.250000 6.000000 0.250000
v 0.250000 6.000000 -0.250000
v -0.250000 6.000000 -0.250000
v 0.283333 2.400000 -0.850000
v 0.283333 2.400000 -1.100000
v 0.850000 2.400000 -1.100000
v 0.650000 3.600000 -0.900000
v 0.650000 3.600000 -0.650000
v -0.650000 3.600000 -0.650000
v -0.450000 4.800000 -0.450000
v 0.450000 4.800000 -0.450000
v 0.450000 4.800000 -0.700000
v 0.700000 4.800000 0.450000
v 0.700000 4.800000 -0.450000
v 0.900000 3.600000 0.650000
v 0.650000 3.600000 0.650000
v 0.850000 2.400000 -0.283333
v 0.850000 2.400000 -0.850000
v 1.100000 2.400000 -0.850000
v 0.283333 2.400000 0.850000
v 0.850000 2.400000 0.850000
v 0.850000 2.400000 1.100000
v 0.650000 3.600000 0.900000
v -0.650000 3.600000 0.650000
v 0.450000 4.800000 0.450000
v -0.450000 4.800000 0.450000
v -0.450000 4.800000 0.700000
v -0.700000 4.800000 -0.450000
v -0.900000 3.600000 -0.650000
v -1.100000 2.400000 -0.283333
v -1.100000 2.400000 -0.850000
v -0.850000 2.400000 -0.850000
v 1.100000 2.400000 0.850000
v 0.900000 3.600000 -0.650000
v -0.450000 4.800000 -0.700000
v -0.650000 3.600000 -0.900000
v -0.850000 2.400000 0.850000
v -0.700000 4.800000 0.450000
v -0.900000 3.600000 0.650000
v -0.650000 3.600000 0.900000
v 0.450000 4.800000 0.700000
v -1.100000 2.400000 0.283333
v -0.850000 2.400000 0.283333
v -0.850000 2.400000 -0.283333
v -0.283333 2.400000 0.850000
v -0.283333 2.400000 1.100000
v 0.283333 2.400000 1.100000
v 0.850000 2.400000 0.283333
v 1.100000 2.400000 -0.283333
v -0.850000 2.400000 -1.100000
v -0.283333 2.400000 -1.100000
v 1.100000 2.400000 0.283333
v 1.500000 -0.000000 1.250000
v 1.250000 -0.000000 1.250000
v 1.250000 0.000000 -1.250000
v 1.500000 0.000000 -1.250000
v 1.250000 0.000000 -1.500000
v -1.250000 0.000000 -1.500000
v -1.250000 0.000000 -1.250000
v -1.500000 0.000000 -1.250000
v -1.250000 -0.000000 1.250000
v -1.500000 -0.000000 1.250000
v -1.250000 -0.000000 1.500000
v 1.250000 -0.000000 1.500000
v -1.100000 2.400000 0.850000
v -0.850000 2.400000 1.100000
v -0.283333 2.400000 -0.850000
vt 0.458333 0.958333
vt 0.458333 1.000000
vt 0.416667 1.000000
vt 0.416667 0.958333
vt 0.583333 0.041667
vt 0.583333 0.000000
vt 0.625000 0.000000
vt 0.625000 0.166667
vt 0.583333 0.166667
vt 0.583333 0.125000
vt 0.750000 0.125000
vt 0.750000 0.166667
vt 0.708333 0.166667
vt 0.708333 -0.000000
vt 0.750000 -0.000000
vt 0.750000 0.041667
vt 0.041667 0.802083
vt 0.041667 1.000000
vt -0.000000 1.000000
vt 0.083333 0.802083
vt 0.083333 1.000000
vt 0.166667 0.604167
vt 0.166667 0.802083
vt 0.125000 1.000000
vt 0.625000 0.041667
vt 0.625000 0.125000
vt 0.708333 0.125000
vt 0.708333 0.041667
vt 0.416667 0.166667
vt 0.416667 -0.000000
vt 0.541667 0.208333
vt 0.541667 0.291667
vt 0.458333 0.291667
vt 0.458333 0.208333
vt 0.354167 1.000000
vt 0.322917 1.000000
vt 0.322917 0.000000
vt 0.291667 1.000000
vt 0.291667 0.000000
vt 0.260417 1.000000
vt 0.260417 0.000000
vt 0.229167 1.000000
vt 0.229167 0.000000
vt 0.197917 1.000000
vt 0.197917 0.000000
vt 0.166667 1.000000
vt 0.166667 0.000000
vt 0.694455 0.361122
vt 0.705965 0.333333
vt 0.666667 0.294035
vt 0.385417 1.000000
vt 0.354167 0.000000
vt 0.385417 0.000000
vt 0.041667 0.406250
vt 0.041667 0.604167
vt -0.000000 0.604167
vt -0.000000 0.802083
vt 0.083333 0.406250
vt 0.083333 0.604167
vt 0.625000 0.958333
vt 0.708333 0.958333
vt 0.708333 1.000000
vt 0.625000 1.000000
vt 0.041667 0.000000
vt -0.000000 0.406250
vt 0.125000 0.000000
vt -0.000000 0.000000
vt 0.083333 0.000000
vt 0.541667 0.958333
vt 0.541667 1.000000
vt 0.468750 0.343750
vt 0.468750 0.291667
vt 0.520833 0.291667
vt 0.416667 0.510417
vt 0.416667 0.291667
vt 0.468750 0.510417
vt 0.666667 0.415667
vt 0.646833 0.395833
vt 0.686501 0.395833
vt 0.666667 0.166667
vt 0.666667 0.291667
vt 0.645833 0.291667
vt 0.708333 0.291667
vt 0.687500 0.291667
vt 0.729167 0.166667
vt 0.729167 0.291667
vt 0.604167 0.166667
vt 0.604167 0.291667
vt 0.583333 0.291667
vt 0.645833 0.166667
vt 0.625000 0.291667
vt 0.687500 0.166667
vt 0.750000 0.291667
vt 0.166667 0.406250
vt 0.638878 0.305545
vt 0.627368 0.333333
vt 0.638878 0.361122
vt 0.666667 0.372632
vt 0.694455 0.305545
vt 0.520833 0.343750
vt 0.666667 0.376000
vt 0.680691 0.381809
vt 0.680691 0.409858
vt 0.652642 0.409858
vt 0.652642 0.381809
vn 0.000000 -1.000000 -0.000000
vn 0.000000 1.000000 0.000000
vn 0.986400 -0.164400 0.000000
vn -0.986400 -0.164400 0.000000
vn 0.000000 -0.164400 0.986400
vn 0.000000 -0.164400 -0.986400
vn 0.986400 0.164400 0.000000
vn 0.000000 0.707100 -0.707100
vn 0.000000 0.707100 0.707100
vn 0.707100 0.707100 0.000000
vn -0.707100 0.707100 0.000000
vn 0.382700 0.000000 -0.923900
vn 0.923900 0.000000 -0.382700
vn 0.923900 -0.000000 0.382700
vn 0.382700 -0.000000 0.923900
vn -0.382700 -0.000000 0.923900
vn -0.923900 -0.000000 0.382700
vn -0.382700 0.000000 -0.923900
vn -0.923900 0.000000 -0.382700
vn 0.000000 -0.780900 -0.624700
vn 0.000000 0.675700 -0.737200
vn 0.000000 -0.675700 -0.737200
vn 0.000000 0.780900 -0.624700
vn -0.624700 0.780900 0.000000
vn -0.737200 -0.675700 0.000000
vn -0.737200 0.675700 0.000000
vn -0.624700 -0.780900 0.000000
vn 0.000000 0.780900 0.624700
vn 0.000000 -0.675700 0.737200
vn 0.000000 0.675700 0.737200
vn 0.000000 -0.780900 0.624700
vn 0.737200 0.675700 0.000000
vn 0.624700 -0.780900 0.000000
vn 0.624700 0.780900 0.000000
vn 0.737200 -0.675700 0.000000
vn 0.000000 0.164400 0.986400
vn -0.986400 0.164400 -0.000000
vn -0.000000 0.164400 -0.986400
vn 0.000000 -0.503900 0.863800
vn 0.000000 0.503900 0.863800
vn -0.863800 0.503900 0.000000
vn -0.863800 -0.503900 0.000000
vn 0.000000 -0.503900 -0.863800
vn 0.000000 0.503900 -0.863800
vn 0.863800 -0.503900 0.000000
vn 0.863800 0.503900 0.000000
vn 0.000000 0.373600 0.927600
vn 0.000000 0.373600 -0.927600
vn 0.927600 0.373600 0.000000
vn 0.927600 -0.373600 0.000000
vn 0.000000 0.000000 -1.000000
vn 0.000000 0.000000 1.000000
vn -1.000000 0.000000 0.000000
vn 1.000000 0.000000 0.000000
vn 0.000000 -0.373600 -0.927600
vn 0.000000 -0.373600 0.927600
vn -0.927600 -0.373600 0.000000
vn -0.927600 0.373600 0.000000
s 1
f 1/1/1 2/2/1 3/3/1
f 4/2/1 5/3/1 6/4/1
f 7/3/1 8/4/1 9/1/1
f 10/4/1 11/1/1 12/2/1
f 13/5/2 14/6/2 15/7/2
f 16/8/2 17/9/2 18/10/2
f 19/11/2 20/12/2 21/13/2
f 22/14/2 23/15/2 24/16/2
f 25/17/3 26/18/3 18/19/3
f 27/17/4 28/20/4 13/21/4
f 29/17/4 30/18/4 24/19/4
f 31/17/5 32/18/5 21/19/5
f 27/17/6 33/18/6 15/19/6
f 31/17/3 34/20/3 19/21/3
f 35/22/7 36/23/7 14/24/7
f 29/17/5 37/20/5 22/21/5
f 25/17/6 38/20/6 16/21/6
f 18/10/2 13/5/2 33/25/2
f 21/13/2 16/8/2 26/26/2
f 32/27/2 30/28/2 24/16/2
f 30/28/2 33/25/2 15/7/2
f 30/28/2 32/27/2 26/26/2
f 39/29/1 40/30/1 41/6/1
f 42/31/2 43/32/2 44/33/2
f 39/9/8 44/31/8 43/34/8
f 41/9/9 42/31/9 45/34/9
f 40/9/10 43/31/10 42/34/10
f 46/9/11 45/31/11 44/34/11
f 47/35/12 48/36/12 49/37/12
f 48/36/13 50/38/13 51/39/13
f 50/38/14 52/40/14 53/41/14
f 52/40/15 54/42/15 55/43/15
f 54/42/16 56/44/16 57/45/16
f 56/44/17 58/46/17 59/47/17
f 56/48/2 54/49/2 50/50/2
f 60/51/18 47/35/18 61/52/18
f 58/3/19 60/51/19 62/53/19
f 63/54/6 64/55/6 35/56/6
f 64/55/6 27/17/6 36/57/6
f 63/54/4 65/58/4 66/59/4
f 64/55/4 66/59/4 28/20/4
f 67/54/5 68/58/5 69/59/5
f 70/55/5 69/59/5 37/20/5
f 67/54/4 70/55/4 71/56/4
f 70/55/4 29/17/4 72/57/4
f 73/54/3 74/58/3 75/59/3
f 76/55/3 75/59/3 34/20/3
f 73/54/5 76/55/5 77/56/5
f 76/55/5 31/17/5 78/57/5
f 79/54/6 80/58/6 81/59/6
f 82/55/6 81/59/6 38/20/6
f 79/54/3 82/55/3 83/56/3
f 82/55/3 25/17/3 84/57/3
f 85/60/2 67/61/2 86/62/2
f 76/1/2 70/61/2 71/62/2
f 72/61/1 29/62/1 31/2/1
f 29/61/1 37/62/1 36/2/1
f 70/62/2 64/2/2 35/1/2
f 68/61/2 67/62/2 87/63/2
f 65/61/2 63/62/2 88/63/2
f 82/1/1 64/61/1 66/62/1
f 84/2/1 25/1/1 27/61/1
f 78/61/1 31/62/1 25/2/1
f 77/61/1 76/62/1 82/2/1
f 89/63/2 90/60/2 73/61/2
f 69/1/20 91/61/20 63/62/20
f 36/1/21 69/61/21 70/62/21
f 64/62/22 29/2/22 37/1/22
f 67/62/23 64/2/23 35/1/23
f 73/62/24 70/2/24 71/1/24
f 70/62/25 31/2/25 34/1/25
f 76/62/26 29/2/26 72/1/26
f 75/1/27 86/61/27 67/62/27
f 79/62/28 76/2/28 77/1/28
f 76/62/29 25/2/29 38/1/29
f 82/62/30 31/2/30 78/1/30
f 81/1/31 92/61/31 73/62/31
f 64/62/32 25/2/32 84/1/32
f 79/62/33 64/2/33 66/1/33
f 83/1/34 65/61/34 63/62/34
f 82/62/35 27/2/35 28/1/35
f 93/64/6 63/54/6 91/65/6
f 14/24/36 65/58/36 2/66/36
f 65/58/4 63/54/4 93/64/4
f 83/22/36 84/23/36 17/24/36
f 94/65/3 4/67/3 95/64/3
f 95/64/6 6/68/6 80/58/6
f 17/24/37 38/20/37 81/59/37
f 74/58/3 96/64/3 9/68/3
f 20/24/38 75/59/38 74/58/38
f 96/64/5 73/54/5 92/65/5
f 77/22/37 78/23/37 20/24/37
f 97/64/5 12/68/5 68/58/5
f 86/65/4 10/67/4 97/64/4
f 72/23/38 24/46/38 23/24/38
f 23/24/7 69/59/7 68/58/7
f 31/62/39 26/2/39 16/1/39
f 25/62/40 32/2/40 21/1/40
f 31/62/41 30/2/41 24/1/41
f 29/62/42 32/2/42 19/1/42
f 27/62/43 30/2/43 22/1/43
f 29/62/44 33/2/44 15/1/44
f 25/62/45 33/2/45 13/1/45
f 27/62/46 26/2/46 18/1/46
f 79/1/2 98/69/2 99/70/2
f 98/69/2 90/60/2 89/63/2
f 100/69/2 101/70/2 79/2/2
f 102/60/2 88/63/2 101/70/2
f 91/1/2 103/69/2 104/70/2
f 105/60/2 87/63/2 104/70/2
f 73/1/2 106/69/2 107/70/2
f 85/60/2 108/63/2 107/70/2
f 93/61/47 1/62/47 103/2/47
f 97/62/48 87/2/48 105/1/48
f 97/61/49 10/62/49 108/2/49
f 96/61/50 9/62/50 107/2/50
f 96/61/48 7/62/48 89/2/48
f 95/62/47 98/2/47 99/1/47
f 95/62/50 101/2/50 100/1/50
f 93/62/49 88/2/49 102/1/49
f 109/71/51 110/72/51 111/73/51
f 112/71/52 113/72/52 114/73/52
f 115/74/2 116/75/2 117/72/2
f 118/74/2 119/75/2 120/72/2
f 121/75/1 122/72/1 123/76/1
f 124/75/1 125/72/1 126/76/1
f 119/71/53 122/72/53 121/73/53
f 116/71/54 125/72/54 124/73/54
f 127/72/2 118/76/2 128/74/2
f 110/72/1 129/76/1 123/74/1
f 113/72/1 130/76/1 126/74/1
f 131/72/2 115/76/2 132/74/2
f 130/76/52 132/74/52 120/75/52
f 132/76/53 130/74/53 113/75/53
f 114/72/54 126/76/54 115/74/54
f 116/72/52 115/76/52 126/74/52
f 129/76/51 128/74/51 117/75/51
f 128/76/54 129/74/54 110/75/54
f 123/76/53 118/74/53 127/75/53
f 119/72/51 118/76/51 123/74/51
f 133/77/2 134/78/2 135/79/2
f 136/80/14 137/81/14 138/82/14
f 139/13/12 135/83/12 140/84/12
f 141/85/18 142/86/18 135/83/18
f 143/87/17 144/88/17 133/89/17
f 145/90/15 138/82/15 134/91/15
f 146/92/13 140/84/13 137/81/13
f 147/12/19 133/93/19 142/86/19
f 148/8/16 134/91/16 144/88/16
f 149/7/1 150/6/1 151/5/1
f 152/10/1 153/9/1 154/8/1
f 155/13/1 156/12/1 157/11/1
f 158/16/1 159/15/1 160/14/1
f 161/25/1 151/5/1 152/10/1
f 162/26/1 154/8/1 155/13/1
f 158/16/1 163/28/1 164/27/1
f 149/7/1 161/25/1 163/28/1
f 162/26/1 164/27/1 163/28/1
f 165/60/1 166/63/1 167/62/1
f 168/62/1 169/61/1 170/1/1
f 171/2/2 172/62/2 173/61/2
f 174/2/2 175/62/2 172/61/2
f 176/1/1 177/2/1 169/62/1
f 178/63/1 179/62/1 180/61/1
f 181/63/1 182/62/1 183/61/1
f 184/62/2 177/61/2 185/1/2
f 186/61/2 187/1/2 188/2/2
f 187/2/2 171/62/2 189/61/2
f 185/2/2 170/62/2 190/61/2
f 191/63/1 192/62/1 193/61/1
f 182/62/28 194/61/28 195/1/28
f 169/62/29 195/61/29 174/1/29
f 175/1/30 172/2/30 177/62/30
f 176/1/31 177/2/31 179/62/31
f 168/1/33 169/2/33 193/62/33
f 196/1/32 171/2/32 169/62/32
f 170/62/35 197/61/35 173/1/35
f 179/62/34 167/61/34 197/1/34
f 190/1/20 170/2/20 198/62/20
f 199/1/21 187/2/21 170/62/21
f 185/62/22 200/61/22 189/1/22
f 193/62/23 192/61/23 200/1/23
f 188/1/25 187/2/25 177/62/25
f 184/1/24 177/2/24 198/62/24
f 182/62/27 183/61/27 201/1/27
f 185/62/26 201/61/26 202/1/26
f 154/1/44 162/2/44 171/62/44
f 155/1/43 164/2/43 187/62/43
f 158/1/45 163/2/45 171/62/45
f 157/1/46 164/2/46 172/62/46
f 160/1/40 163/2/40 186/62/40
f 149/1/39 161/2/39 172/62/39
f 151/1/41 161/2/41 187/62/41
f 152/1/42 162/2/42 186/62/42
f 203/70/1 204/69/1 198/1/1
f 191/63/1 205/60/1 204/69/1
f 198/2/1 206/70/1 207/69/1
f 206/70/1 181/63/1 208/60/1
f 194/1/1 182/2/1 209/70/1
f 209/70/1 178/63/1 210/60/1
f 193/1/1 211/2/1 212/70/1
f 212/70/1 166/63/1 165/60/1
f 213/2/55 214/62/55 215/61/55
f 216/62/56 217/61/56 210/1/56
f 166/2/57 218/62/57 216/61/57
f 212/2/58 219/62/58 220/61/58
f 191/2/56 221/62/56 220/61/56
f 222/62/55 223/61/55 203/1/55
f 222/62/58 224/61/58 207/1/58
f 215/62/57 225/61/57 208/1/57
f 93/4/1 1/1/1 3/3/1
f 95/1/1 4/2/1 6/4/1
f 96/2/1 7/3/1 9/1/1
f 97/3/1 10/4/1 12/2/1
f 33/25/2 13/5/2 15/7/2
f 26/26/2 16/8/2 18/10/2
f 32/27/2 19/11/2 21/13/2
f 30/28/2 22/14/2 24/16/2
f 84/57/3 25/17/3 18/19/3
f 33/18/4 27/17/4 13/21/4
f 72/57/4 29/17/4 24/19/4
f 78/57/5 31/17/5 21/19/5
f 36/57/6 27/17/6 15/19/6
f 32/18/3 31/17/3 19/21/3
f 14/24/7 91/94/7 35/22/7
f 1/47/7 91/94/7 2/66/7
f 36/23/7 15/46/7 14/24/7
f 91/94/7 14/24/7 2/66/7
f 30/18/5 29/17/5 22/21/5
f 26/18/6 25/17/6 16/21/6
f 26/26/2 18/10/2 33/25/2
f 32/27/2 21/13/2 26/26/2
f 19/11/2 32/27/2 24/16/2
f 22/14/2 30/28/2 15/7/2
f 33/25/2 30/28/2 26/26/2
f 46/9/1 39/29/1 41/6/1
f 45/34/2 42/31/2 44/33/2
f 40/29/8 39/9/8 43/34/8
f 46/29/9 41/9/9 45/34/9
f 41/29/10 40/9/10 42/34/10
f 39/29/11 46/9/11 44/34/11
f 61/52/12 47/35/12 49/37/12
f 49/37/13 48/36/13 51/39/13
f 51/39/14 50/38/14 53/41/14
f 53/41/15 52/40/15 55/43/15
f 55/43/16 54/42/16 57/45/16
f 57/45/17 56/44/17 59/47/17
f 50/50/2 48/95/2 47/96/2
f 47/96/2 60/97/2 50/50/2
f 58/98/2 56/48/2 50/50/2
f 54/49/2 52/99/2 50/50/2
f 50/50/2 60/97/2 58/98/2
f 62/53/18 60/51/18 61/52/18
f 59/30/19 58/3/19 62/53/19
f 91/65/6 63/54/6 35/56/6
f 35/56/6 64/55/6 36/57/6
f 64/55/4 63/54/4 66/59/4
f 27/17/4 64/55/4 28/20/4
f 70/55/5 67/54/5 69/59/5
f 29/17/5 70/55/5 37/20/5
f 86/65/4 67/54/4 71/56/4
f 71/56/4 70/55/4 72/57/4
f 76/55/3 73/54/3 75/59/3
f 31/17/3 76/55/3 34/20/3
f 92/65/5 73/54/5 77/56/5
f 77/56/5 76/55/5 78/57/5
f 82/55/6 79/54/6 81/59/6
f 25/17/6 82/55/6 38/20/6
f 94/65/3 79/54/3 83/56/3
f 83/56/3 82/55/3 84/57/3
f 108/63/2 85/60/2 86/62/2
f 75/2/2 76/1/2 71/62/2
f 34/1/1 72/61/1 31/2/1
f 27/1/1 29/61/1 36/2/1
f 69/61/2 70/62/2 35/1/2
f 105/60/2 68/61/2 87/63/2
f 102/60/2 65/61/2 88/63/2
f 83/2/1 82/1/1 66/62/1
f 28/62/1 84/2/1 27/61/1
f 38/1/1 78/61/1 25/2/1
f 81/1/1 77/61/1 82/2/1
f 92/62/2 89/63/2 73/61/2
f 70/2/20 69/1/20 63/62/20
f 27/2/21 36/1/21 70/62/21
f 35/61/22 64/62/22 37/1/22
f 68/61/23 67/62/23 35/1/23
f 74/61/24 73/62/24 71/1/24
f 71/61/25 70/62/25 34/1/25
f 75/61/26 76/62/26 72/1/26
f 76/2/27 75/1/27 67/62/27
f 80/61/28 79/62/28 77/1/28
f 77/61/29 76/62/29 38/1/29
f 81/61/30 82/62/30 78/1/30
f 82/2/31 81/1/31 73/62/31
f 66/61/32 64/62/32 84/1/32
f 94/61/33 79/62/33 66/1/33
f 82/2/34 83/1/34 63/62/34
f 83/61/35 82/62/35 28/1/35
f 1/67/6 93/64/6 91/65/6
f 3/68/36 2/66/36 65/58/36
f 14/24/36 13/21/36 28/20/36
f 66/59/36 65/58/36 14/24/36
f 14/24/36 28/20/36 66/59/36
f 3/68/4 65/58/4 93/64/4
f 5/66/36 4/47/36 94/94/36
f 94/94/36 83/22/36 17/24/36
f 84/23/36 18/46/36 17/24/36
f 17/24/36 5/66/36 94/94/36
f 79/54/3 94/65/3 95/64/3
f 79/54/6 95/64/6 80/58/6
f 80/58/37 6/68/37 5/66/37
f 5/66/37 17/24/37 80/58/37
f 16/21/37 38/20/37 17/24/37
f 81/59/37 80/58/37 17/24/37
f 73/54/3 96/64/3 74/58/3
f 74/58/38 9/68/38 8/66/38
f 8/66/38 20/24/38 74/58/38
f 34/20/38 75/59/38 20/24/38
f 20/24/38 19/21/38 34/20/38
f 7/67/5 96/64/5 92/65/5
f 8/66/37 7/47/37 92/94/37
f 92/94/37 77/22/37 20/24/37
f 78/23/37 21/46/37 20/24/37
f 20/24/37 8/66/37 92/94/37
f 67/54/5 97/64/5 68/58/5
f 67/54/4 86/65/4 97/64/4
f 23/24/38 86/94/38 71/22/38
f 10/47/38 86/94/38 11/66/38
f 71/22/38 72/23/38 23/24/38
f 11/66/38 86/94/38 23/24/38
f 12/68/7 11/66/7 68/58/7
f 23/24/7 22/21/7 37/20/7
f 37/20/7 69/59/7 23/24/7
f 68/58/7 11/66/7 23/24/7
f 78/61/39 31/62/39 16/1/39
f 38/61/40 25/62/40 21/1/40
f 34/61/41 31/62/41 24/1/41
f 72/61/42 29/62/42 19/1/42
f 36/61/43 27/62/43 22/1/43
f 37/61/44 29/62/44 15/1/44
f 84/61/45 25/62/45 13/1/45
f 28/61/46 27/62/46 18/1/46
f 80/2/2 79/1/2 99/70/2
f 99/70/2 98/69/2 89/63/2
f 94/1/2 100/69/2 79/2/2
f 100/69/2 102/60/2 101/70/2
f 63/2/2 91/1/2 104/70/2
f 103/69/2 105/60/2 104/70/2
f 74/2/2 73/1/2 107/70/2
f 106/69/2 85/60/2 107/70/2
f 104/1/47 93/61/47 103/2/47
f 12/61/48 97/62/48 105/1/48
f 85/1/49 97/61/49 108/2/49
f 106/1/50 96/61/50 107/2/50
f 90/1/48 96/61/48 89/2/48
f 6/61/47 95/62/47 99/1/47
f 4/61/50 95/62/50 100/1/50
f 3/61/49 93/62/49 102/1/49
f 127/100/51 109/71/51 111/73/51
f 131/100/52 112/71/52 114/73/52
f 128/76/2 115/74/2 117/72/2
f 132/76/2 118/74/2 120/72/2
f 130/74/1 121/75/1 123/76/1
f 129/74/1 124/75/1 126/76/1
f 120/100/53 119/71/53 121/73/53
f 117/100/54 116/71/54 124/73/54
f 109/75/2 127/72/2 128/74/2
f 111/75/1 110/72/1 123/74/1
f 114/75/1 113/72/1 126/74/1
f 112/75/2 131/72/2 132/74/2
f 121/72/52 130/76/52 120/75/52
f 112/72/53 132/76/53 113/75/53
f 131/75/54 114/72/54 115/74/54
f 125/75/52 116/72/52 126/74/52
f 124/72/51 129/76/51 117/75/51
f 109/72/54 128/76/54 110/75/54
f 111/72/53 123/76/53 127/75/53
f 122/75/51 119/72/51 123/74/51
f 137/101/2 140/102/2 135/79/2
f 135/79/2 142/103/2 133/77/2
f 133/77/2 144/104/2 134/78/2
f 134/78/2 138/105/2 137/101/2
f 137/101/2 135/79/2 134/78/2
f 145/90/14 136/80/14 138/82/14
f 146/92/12 139/13/12 140/84/12
f 139/13/18 141/85/18 135/83/18
f 147/9/17 143/87/17 133/89/17
f 148/8/15 145/90/15 134/91/15
f 136/80/13 146/92/13 137/81/13
f 141/85/19 147/12/19 142/86/19
f 143/87/16 148/8/16 144/88/16
f 161/25/1 149/7/1 151/5/1
f 162/26/1 152/10/1 154/8/1
f 164/27/1 155/13/1 157/11/1
f 163/28/1 158/16/1 160/14/1
f 162/26/1 161/25/1 152/10/1
f 164/27/1 162/26/1 155/13/1
f 157/11/1 158/16/1 164/27/1
f 160/14/1 149/7/1 163/28/1
f 161/25/1 162/26/1 163/28/1
f 179/61/1 165/60/1 167/62/1
f 197/2/1 168/62/1 170/1/1
f 196/1/2 171/2/2 173/61/2
f 186/1/2 174/2/2 172/61/2
f 195/61/1 176/1/1 169/62/1
f 210/60/1 178/63/1 180/61/1
f 208/60/1 181/63/1 183/61/1
f 201/2/2 184/62/2 185/1/2
f 202/62/2 186/61/2 188/2/2
f 199/1/2 187/2/2 189/61/2
f 200/1/2 185/2/2 190/61/2
f 205/60/1 191/63/1 193/61/1
f 169/2/28 182/62/28 195/1/28
f 186/2/29 169/62/29 174/1/29
f 176/61/30 175/1/30 177/62/30
f 180/61/31 176/1/31 179/62/31
f 211/61/33 168/1/33 193/62/33
f 168/61/32 196/1/32 169/62/32
f 172/2/35 170/62/35 173/1/35
f 170/2/34 179/62/34 197/1/34
f 226/61/20 190/1/20 198/62/20
f 190/61/21 199/1/21 170/62/21
f 171/2/22 185/62/22 189/1/22
f 185/2/23 193/62/23 200/1/23
f 184/61/25 188/1/25 177/62/25
f 227/61/24 184/1/24 198/62/24
f 185/2/27 182/62/27 201/1/27
f 186/2/26 185/62/26 202/1/26
f 189/61/44 154/1/44 171/62/44
f 199/61/43 155/1/43 187/62/43
f 196/61/45 158/1/45 171/62/45
f 173/61/46 157/1/46 172/62/46
f 174/61/40 160/1/40 186/62/40
f 175/61/39 149/1/39 172/62/39
f 188/61/41 151/1/41 187/62/41
f 202/61/42 152/1/42 186/62/42
f 226/2/1 203/70/1 198/1/1
f 203/70/1 191/63/1 204/69/1
f 227/1/1 198/2/1 207/69/1
f 207/69/1 206/70/1 208/60/1
f 213/69/1 194/1/1 209/70/1
f 213/69/1 209/70/1 210/60/1
f 228/69/1 193/1/1 212/70/1
f 228/69/1 212/70/1 165/60/1
f 209/1/55 213/2/55 215/61/55
f 178/2/56 216/62/56 210/1/56
f 165/1/57 166/2/57 216/61/57
f 228/1/58 212/2/58 220/61/58
f 205/1/56 191/2/56 220/61/56
f 204/2/55 222/62/55 203/1/55
f 206/2/58 222/62/58 207/1/58
f 181/2/57 215/62/57 208/1/57
