# Blender v2.76 (sub 0) OBJ File: 'flag.blend'
# www.blender.org
o Flag
v -0.000000 5.000000 -0.062500
v 0.000000 4.250000 -0.062500
v -0.000000 5.000000 -1.187500
v 0.000000 4.250000 -1.187500
vt 0.000000 0.000000
vt 1.000000 0.000000
vt 1.000000 1.000000
vt 0.000000 1.000000
vn 1.000000 0.000000 0.000000
s off
f 2/1/1 4/2/1 3/3/1
f 1/4/1 2/1/1 3/3/1
o Pole
v 0.000000 0.000000 -0.500000
v 0.000000 0.125000 -0.500000
v 0.250000 0.000000 -0.433013
v 0.250000 0.125000 -0.433013
v 0.433013 0.000000 -0.250000
v 0.433013 0.125000 -0.250000
v 0.500000 0.000000 0.000000
v 0.500000 0.125000 0.000000
v 0.433013 0.000000 0.250000
v 0.433013 0.125000 0.250000
v 0.250000 0.000000 0.433013
v 0.250000 0.125000 0.433013
v 0.000000 0.000000 0.500000
v 0.000000 0.125000 0.500000
v -0.250000 0.000000 0.433013
v -0.250000 0.125000 0.433013
v -0.433013 0.000000 0.250000
v -0.433013 0.125000 0.250000
v -0.500000 0.000000 0.000000
v -0.500000 0.125000 0.000000
v -0.433013 0.000000 -0.250000
v -0.433013 0.125000 -0.250000
v -0.250000 0.000000 -0.433013
v -0.250000 0.125000 -0.433013
v -0.062500 0.125000 0.062500
v -0.062500 5.125000 0.062500
v -0.062500 0.125000 -0.062500
v -0.062500 5.125000 -0.062500
v 0.062500 0.125000 0.062500
v 0.062500 5.125000 0.062500
v 0.062500 0.125000 -0.062500
v 0.062500 5.125000 -0.062500
vt 0.875000 0.180000
vt 0.625000 0.180000
vt 0.625000 0.160000
vt 0.375000 0.180000
vt 0.375000 0.160000
vt 0.125000 0.180000
vt 0.125000 0.160000
vt 0.257071 0.147322
vt 0.257071 0.012678
vt 0.985858 0.080000
vt 0.875000 0.160000
vt 0.014142 0.080000
vt -0.000000 0.980000
vt -0.000000 0.180000
vt 0.125000 0.980000
vt 0.125000 1.000000
vt -0.000000 1.000000
vt 0.920765 0.118869
vt 0.742929 0.147322
vt 0.499999 0.157737
vt 0.079235 0.118869
vt 0.079235 0.041131
vt 0.500000 0.002263
vt 0.742929 0.012678
vt 0.920765 0.041131
vn 0.258800 0.000000 -0.965900
vn 0.707100 0.000000 -0.707100
vn 0.965900 0.000000 -0.258800
vn 0.965900 0.000000 0.258800
vn 0.707100 0.000000 0.707100
vn 0.258800 0.000000 0.965900
vn -0.258800 0.000000 0.965900
vn -0.707100 0.000000 0.707100
vn -0.965900 0.000000 0.258800
vn -0.965900 0.000000 -0.258800
vn 0.000000 1.000000 0.000000
vn -0.258800 0.000000 -0.965900
vn -0.707100 0.000000 -0.707100
vn 0.000000 -1.000000 0.000000
vn -1.000000 0.000000 0.000000
vn 0.000000 0.000000 -1.000000
vn 1.000000 0.000000 0.000000
vn 0.000000 0.000000 1.000000
s off
f 6/5/2 8/6/2 7/7/2
f 8/6/3 10/8/3 9/9/3
f 10/8/4 12/10/4 11/11/4
f 12/5/5 14/6/5 13/7/5
f 14/6/6 16/8/6 15/9/6
f 16/8/7 18/10/7 17/11/7
f 18/5/8 20/6/8 19/7/8
f 20/6/9 22/8/9 21/9/9
f 22/8/10 24/10/10 23/11/10
f 24/11/11 26/9/11 25/8/11
f 26/12/12 18/13/12 10/14/12
f 28/7/13 6/15/13 5/5/13
f 26/9/14 28/7/14 27/6/14
f 11/14/15 23/16/15 27/13/15
f 32/17/16 31/18/16 29/10/16
f 36/19/17 35/10/17 31/18/17
f 34/17/18 33/18/18 35/10/18
f 30/19/19 29/10/19 33/18/19
f 36/20/12 32/21/12 30/17/12
f 5/15/2 6/5/2 7/7/2
f 7/7/3 8/6/3 9/9/3
f 9/9/4 10/8/4 11/11/4
f 11/15/5 12/5/5 13/7/5
f 13/7/6 14/6/6 15/9/6
f 15/9/7 16/8/7 17/11/7
f 17/15/8 18/5/8 19/7/8
f 19/7/9 20/6/9 21/9/9
f 21/9/10 22/8/10 23/11/10
f 23/10/11 24/11/11 25/8/11
f 10/14/12 8/22/12 6/23/12
f 6/23/12 28/24/12 26/12/12
f 26/12/12 24/25/12 22/16/12
f 22/16/12 20/26/12 18/13/12
f 18/13/12 16/27/12 14/28/12
f 14/28/12 12/29/12 10/14/12
f 10/14/12 6/23/12 26/12/12
f 26/12/12 22/16/12 18/13/12
f 18/13/12 14/28/12 10/14/12
f 27/6/13 28/7/13 5/5/13
f 25/8/14 26/9/14 27/6/14
f 27/13/15 5/27/15 7/28/15
f 7/28/15 9/29/15 11/14/15
f 11/14/15 13/22/15 15/23/15
f 15/23/15 17/24/15 19/12/15
f 19/12/15 21/25/15 23/16/15
f 23/16/15 25/26/15 27/13/15
f 27/13/15 7/28/15 11/14/15
f 11/14/15 15/23/15 19/12/15
f 19/12/15 23/16/15 11/14/15
f 30/19/16 32/17/16 29/10/16
f 32/17/17 36/19/17 31/18/17
f 36/19/18 34/17/18 35/10/18
f 34/17/19 30/19/19 33/18/19
f 34/19/12 36/20/12 30/17/12
