# Blender v2.76 (sub 0) OBJ File: 'naval_base.blend'
# www.blender.org
o Cylinder
v 0.000000 0.000000 -1.750000
v 0.000000 1.250000 -1.750000
v 0.875000 0.000000 -1.515544
v 0.875000 1.250000 -1.515544
v 1.515545 0.000000 -0.875000
v 1.515545 1.250000 -0.875000
v 1.750000 0.000000 0.000000
v 1.750000 1.250000 0.000000
v 1.515544 0.000000 0.875000
v 1.515544 1.250000 0.875000
v 0.875000 0.000000 1.515544
v 0.875000 1.250000 1.515544
v 0.000000 0.000000 1.750000
v 0.000000 1.250000 1.750000
v -0.875000 0.000000 1.515545
v -0.875000 1.250000 1.515545
v -1.515544 0.000000 0.875001
v -1.515544 1.250000 0.875001
v -1.750000 0.000000 0.000001
v -1.750000 1.250000 0.000001
v -1.515545 0.000000 -0.874999
v -1.515545 1.250000 -0.874999
v -0.875001 0.000000 -1.515544
v -0.875001 1.250000 -1.515544
vn 0.258800 0.000000 -0.965900
vn 0.707100 0.000000 -0.707100
vn 0.965900 0.000000 -0.258800
vn 0.965900 0.000000 0.258800
vn 0.707100 0.000000 0.707100
vn 0.258800 0.000000 0.965900
vn -0.258800 0.000000 0.965900
vn -0.707100 0.000000 0.707100
vn -0.965900 0.000000 0.258800
vn -0.965900 0.000000 -0.258800
vn -0.258800 0.000000 -0.965900
vn -0.707100 0.000000 -0.707100
vn 0.000000 -1.000000 0.000000
s off
f 2//1 4//1 3//1
f 4//2 6//2 5//2
f 6//3 8//3 7//3
f 8//4 10//4 9//4
f 10//5 12//5 11//5
f 12//6 14//6 13//6
f 14//7 16//7 15//7
f 16//8 18//8 17//8
f 18//9 20//9 19//9
f 20//10 22//10 21//10
f 24//11 2//11 1//11
f 22//12 24//12 23//12
f 7//13 19//13 23//13
f 1//1 2//1 3//1
f 3//2 4//2 5//2
f 5//3 6//3 7//3
f 7//4 8//4 9//4
f 9//5 10//5 11//5
f 11//6 12//6 13//6
f 13//7 14//7 15//7
f 15//8 16//8 17//8
f 17//9 18//9 19//9
f 19//10 20//10 21//10
f 23//11 24//11 1//11
f 21//12 22//12 23//12
f 23//13 1//13 3//13
f 3//13 5//13 7//13
f 7//13 9//13 11//13
f 11//13 13//13 15//13
f 15//13 17//13 19//13
f 19//13 21//13 23//13
f 23//13 3//13 7//13
f 7//13 11//13 15//13
f 15//13 19//13 7//13
