# Blender v2.76 (sub 0) OBJ File: 'naval_main.blend'
# www.blender.org
o Cube
v 0.000000 2.440000 2.402500
v 2.465000 2.440000 1.637500
v 0.000000 2.440000 -2.315000
v 2.465000 2.440000 -1.550000
v -4.590000 2.440000 1.892500
v -4.590000 2.440000 -1.805000
v 3.102500 1.250000 1.637500
v 3.102500 1.250000 -1.550000
v 0.000000 1.250000 2.487500
v 0.000000 1.250000 -2.400000
v -3.655000 1.740000 -2.230000
v -3.655000 2.462500 -2.230000
v -3.655000 1.740000 -2.697500
v -3.655000 2.462500 -2.697500
v -2.805000 1.740000 -2.230000
v -2.805000 2.462500 -2.230000
v -2.805000 1.740000 -2.697500
v -2.805000 2.462500 -2.697500
v -3.655000 1.740000 2.785000
v -3.655000 2.462500 2.785000
v -3.655000 1.740000 2.317500
v -3.655000 2.462500 2.317500
v -2.805000 1.740000 2.785000
v -2.805000 2.462500 2.785000
v -2.805000 1.740000 2.317500
v -2.805000 2.462500 2.317500
v -3.655000 1.867500 -2.230000
v -2.805000 1.867500 -2.230000
v -3.655000 1.867500 2.317500
v -2.805000 1.867500 2.317500
v -3.655000 2.335000 -2.230000
v -2.805000 2.335000 -2.230000
v -3.655000 2.335000 2.317500
v -2.805000 2.335000 2.317500
v -2.805000 2.335000 -1.911250
v -3.655000 2.335000 -1.911250
v -3.655000 1.867500 -1.911250
v -2.805000 1.867500 -1.911250
v -3.655000 2.335000 1.998750
v -2.805000 2.335000 1.998750
v -2.805000 1.867500 1.998750
v -3.655000 1.867500 1.998750
v -4.590000 1.707343 1.895223
v -4.590000 1.707345 -1.807723
v -3.240631 1.250000 -1.984419
v -3.240635 1.250000 2.071919
v 2.893199 2.081746 -0.350000
v 2.666622 1.976092 -0.350000
v 2.856801 1.568253 -0.350000
v 3.083378 1.673908 -0.350000
v 2.930759 1.409649 -0.303109
v 3.157336 1.515304 -0.303109
v 2.984900 1.293543 -0.175000
v 3.211477 1.399198 -0.175000
v 3.004717 1.251046 0.000000
v 3.231294 1.356700 0.000000
v 2.984900 1.293543 0.175000
v 3.211477 1.399198 0.175000
v 2.930759 1.409649 0.303109
v 3.157336 1.515304 0.303109
v 2.856801 1.568253 0.350000
v 3.083378 1.673908 0.350000
v 2.935229 2.228234 0.257643
v 2.935229 2.228234 -0.257642
v 2.998094 2.093420 -0.297500
v 3.268629 1.513254 0.148750
v 3.285474 1.477131 0.000000
v 3.268629 1.513254 -0.148750
v 2.889209 2.326924 0.148750
v 2.872365 2.363047 0.000000
v 3.159745 1.746758 -0.297500
v 3.222610 1.611944 -0.257643
v 2.666622 1.976092 0.350000
v 2.893199 2.081746 0.350000
v 2.592664 2.134696 0.303109
v 2.819241 2.240350 0.303109
v 2.538523 2.250802 0.175000
v 2.765100 2.356456 0.175000
v 2.518706 2.293299 0.000000
v 2.745283 2.398954 0.000000
v 2.538523 2.250802 -0.175000
v 2.765100 2.356457 -0.175000
v 2.592664 2.134696 -0.303109
v 2.819241 2.240350 -0.303109
v 3.222610 1.611944 0.257643
v 3.159745 1.746758 0.297500
v 2.889209 2.326924 -0.148750
v 2.998094 2.093420 0.297500
v 2.893199 2.081746 -1.350000
v 2.666622 1.976092 -1.350000
v 2.856801 1.568253 -1.350000
v 3.083378 1.673908 -1.350000
v 2.930759 1.409649 -1.303109
v 3.157336 1.515304 -1.303109
v 2.984900 1.293543 -1.175000
v 3.211477 1.399198 -1.175000
v 3.004717 1.251046 -1.000000
v 3.231294 1.356700 -1.000000
v 2.984900 1.293543 -0.825000
v 3.211477 1.399198 -0.825000
v 2.930759 1.409649 -0.696891
v 3.157336 1.515304 -0.696891
v 2.856801 1.568253 -0.650000
v 3.083378 1.673908 -0.650000
v 2.935229 2.228234 -0.742357
v 2.935229 2.228234 -1.257643
v 2.998094 2.093420 -1.297500
v 3.268629 1.513254 -0.851250
v 3.285474 1.477131 -1.000000
v 3.268629 1.513254 -1.148750
v 2.889209 2.326924 -0.851250
v 2.872365 2.363047 -1.000000
v 3.159745 1.746758 -1.297500
v 3.222610 1.611944 -1.257643
v 2.666622 1.976092 -0.650000
v 2.893199 2.081746 -0.650000
v 2.592664 2.134696 -0.696891
v 2.819241 2.240350 -0.696891
v 2.538523 2.250802 -0.825000
v 2.765100 2.356456 -0.825000
v 2.518706 2.293299 -1.000000
v 2.745283 2.398954 -1.000000
v 2.538523 2.250802 -1.175000
v 2.765100 2.356457 -1.175000
v 2.592664 2.134696 -1.303109
v 2.819241 2.240350 -1.303109
v 3.222610 1.611944 -0.742357
v 3.159745 1.746758 -0.702500
v 2.889209 2.326924 -1.148750
v 2.998094 2.093420 -0.702500
v 2.893199 2.081746 0.650000
v 2.666622 1.976092 0.650000
v 2.856801 1.568253 0.650000
v 3.083378 1.673908 0.650000
v 2.930759 1.409649 0.696891
v 3.157336 1.515304 0.696891
v 2.984900 1.293543 0.825000
v 3.211477 1.399198 0.825000
v 3.004717 1.251046 1.000000
v 3.231294 1.356700 1.000000
v 2.984900 1.293543 1.175000
v 3.211477 1.399198 1.175000
v 2.930759 1.409649 1.303109
v 3.157336 1.515304 1.303109
v 2.856801 1.568253 1.350000
v 3.083378 1.673908 1.350000
v 2.935229 2.228234 1.257643
v 2.935229 2.228234 0.742357
v 2.998094 2.093420 0.702500
v 3.268629 1.513254 1.148750
v 3.285474 1.477131 1.000000
v 3.268629 1.513254 0.851250
v 2.889209 2.326924 1.148750
v 2.872365 2.363047 1.000000
v 3.159745 1.746758 0.702500
v 3.222610 1.611944 0.742357
v 2.666622 1.976092 1.350000
v 2.893199 2.081746 1.350000
v 2.592664 2.134696 1.303109
v 2.819241 2.240350 1.303109
v 2.538523 2.250802 1.175000
v 2.765100 2.356456 1.175000
v 2.518706 2.293299 1.000000
v 2.745283 2.398954 1.000000
v 2.538523 2.250802 0.825000
v 2.765100 2.356457 0.825000
v 2.592664 2.134696 0.696891
v 2.819241 2.240350 0.696891
v 3.222610 1.611944 1.257643
v 3.159745 1.746758 1.297500
v 2.889209 2.326924 0.851250
v 2.998094 2.093420 1.297500
vn 0.000000 1.000000 0.000000
vn 0.881500 0.472200 0.000000
vn 0.263600 0.068700 0.962200
vn 0.292700 0.156800 -0.943200
vn 0.292700 0.156800 0.943200
vn 0.263600 0.068700 -0.962200
vn -1.000000 0.000000 0.000000
vn 0.000000 0.000000 -1.000000
vn 1.000000 0.000000 0.000000
vn 0.000000 -1.000000 0.000000
vn 0.000000 0.000000 1.000000
vn -0.321000 -0.947100 -0.000000
vn -0.110400 0.024600 -0.993600
vn -0.126900 0.070700 0.989400
vn 0.421300 0.196400 -0.885400
vn 0.109400 -0.234600 -0.965900
vn 0.557100 0.014300 0.830300
vn 0.298800 -0.640900 -0.707100
vn 0.266500 0.943100 -0.198900
vn 0.408200 -0.875400 -0.258800
vn 0.893700 -0.402100 -0.198900
vn 0.408200 -0.875400 0.258800
vn -0.298800 0.640900 -0.707100
vn 0.298800 -0.640900 0.707100
vn -0.109400 0.234600 -0.965900
vn 0.109400 -0.234600 0.965900
vn 0.781400 -0.261100 0.566800
vn -0.408200 0.875400 -0.258800
vn 0.302300 0.766400 -0.566800
vn 0.781400 -0.261100 -0.566800
vn -0.408200 0.875400 0.258800
vn 0.369100 0.417600 -0.830300
vn 0.369100 0.417600 0.830300
vn -0.298800 0.640900 0.707100
vn 0.421300 0.196400 0.885400
vn 0.302300 0.766400 0.566800
vn -0.109400 0.234600 0.965900
vn 0.893700 -0.402100 0.198900
vn 0.906300 0.422600 0.000000
vn 0.557100 0.014300 -0.830300
vn 0.266500 0.943100 0.198900
vn -0.128600 0.003700 -0.991700
vn -0.126900 0.070700 -0.989400
vn -0.110400 0.024600 0.993600
vn -0.128600 0.003700 0.991700
vn 0.893800 -0.402100 0.198900
s off
f 2//1 4//1 3//1
f 3//1 6//1 5//1
f 2//2 7//2 8//2
f 1//3 9//3 7//3
f 3//4 4//4 8//4
f 2//5 1//5 7//5
f 10//6 3//6 8//6
f 14//7 13//7 11//7
f 18//8 17//8 13//8
f 18//9 16//9 15//9
f 22//8 26//8 34//8
f 13//10 17//10 15//10
f 18//1 14//1 12//1
f 28//11 27//11 11//11
f 16//11 12//11 31//11
f 20//11 19//11 23//11
f 21//10 25//10 23//10
f 26//1 22//1 20//1
f 30//8 25//8 21//8
f 24//9 23//9 25//9
f 20//7 22//7 21//7
f 36//1 35//1 32//1
f 37//7 36//7 31//7
f 38//10 37//10 27//10
f 35//9 38//9 28//9
f 40//1 39//1 33//1
f 41//9 40//9 34//9
f 42//10 41//10 30//10
f 39//7 42//7 29//7
f 46//12 43//12 44//12
f 9//10 10//10 7//10
f 3//13 45//13 6//13
f 6//7 44//7 43//7
f 46//14 9//14 1//14
f 47//15 65//15 71//15
f 50//16 52//16 51//16
f 62//17 60//17 85//17
f 51//18 52//18 54//18
f 82//19 80//19 70//19
f 54//20 56//20 55//20
f 54//21 68//21 67//21
f 55//22 56//22 58//22
f 81//23 82//23 84//23
f 58//24 60//24 59//24
f 83//25 84//25 47//25
f 60//26 62//26 61//26
f 60//27 58//27 66//27
f 80//28 82//28 81//28
f 84//29 82//29 87//29
f 52//30 72//30 68//30
f 78//31 80//31 79//31
f 47//32 84//32 64//32
f 74//33 88//33 63//33
f 76//34 78//34 77//34
f 74//35 62//35 86//35
f 76//36 63//36 69//36
f 74//37 76//37 75//37
f 58//38 56//38 67//38
f 49//8 48//8 47//8
f 88//39 86//39 65//39
f 50//40 71//40 72//40
f 78//41 69//41 70//41
f 62//11 74//11 73//11
f 89//15 107//15 113//15
f 91//16 92//16 94//16
f 104//17 102//17 127//17
f 93//18 94//18 96//18
f 124//19 122//19 112//19
f 96//20 98//20 97//20
f 96//21 110//21 109//21
f 97//22 98//22 100//22
f 123//23 124//23 126//23
f 100//24 102//24 101//24
f 125//25 126//25 89//25
f 102//26 104//26 103//26
f 102//27 100//27 108//27
f 121//28 122//28 124//28
f 126//29 124//29 129//29
f 94//30 114//30 110//30
f 120//31 122//31 121//31
f 89//32 126//32 106//32
f 116//33 130//33 105//33
f 117//34 118//34 120//34
f 116//35 104//35 128//35
f 118//36 105//36 111//36
f 115//37 116//37 118//37
f 100//38 98//38 109//38
f 91//8 90//8 89//8
f 130//39 128//39 107//39
f 92//40 113//40 114//40
f 120//41 111//41 112//41
f 104//11 116//11 115//11
f 131//15 149//15 155//15
f 133//16 134//16 136//16
f 146//17 144//17 169//17
f 135//18 136//18 138//18
f 166//19 164//19 154//19
f 138//20 140//20 139//20
f 138//21 152//21 151//21
f 139//22 140//22 142//22
f 165//23 166//23 168//23
f 142//24 144//24 143//24
f 167//25 168//25 131//25
f 144//26 146//26 145//26
f 144//27 142//27 150//27
f 164//28 166//28 165//28
f 168//29 166//29 171//29
f 136//30 156//30 152//30
f 162//31 164//31 163//31
f 131//32 168//32 148//32
f 158//33 172//33 147//33
f 159//34 160//34 162//34
f 158//35 146//35 170//35
f 160//36 147//36 153//36
f 157//37 158//37 160//37
f 142//38 140//38 151//38
f 133//8 132//8 131//8
f 172//39 170//39 149//39
f 134//40 155//40 156//40
f 162//41 153//41 154//41
f 146//11 158//11 157//11
f 1//1 2//1 3//1
f 1//1 3//1 5//1
f 4//2 2//2 8//2
f 12//7 14//7 11//7
f 14//8 18//8 13//8
f 17//9 18//9 15//9
f 33//8 22//8 34//8
f 11//10 13//10 15//10
f 16//1 18//1 12//1
f 15//11 28//11 11//11
f 32//11 16//11 31//11
f 24//11 20//11 23//11
f 19//10 21//10 23//10
f 24//1 26//1 20//1
f 29//8 30//8 21//8
f 26//9 24//9 25//9
f 19//7 20//7 21//7
f 31//1 36//1 32//1
f 27//7 37//7 31//7
f 28//10 38//10 27//10
f 32//9 35//9 28//9
f 34//1 40//1 33//1
f 30//9 41//9 34//9
f 29//10 42//10 30//10
f 33//7 39//7 29//7
f 45//12 46//12 44//12
f 8//10 7//10 10//10
f 9//10 46//10 45//10
f 45//10 10//10 9//10
f 44//42 6//42 45//42
f 3//43 10//43 45//43
f 5//7 6//7 43//7
f 1//44 5//44 46//44
f 43//45 46//45 5//45
f 50//15 47//15 71//15
f 49//16 50//16 51//16
f 86//17 62//17 85//17
f 53//18 51//18 54//18
f 87//19 82//19 70//19
f 53//20 54//20 55//20
f 56//21 54//21 67//21
f 57//22 55//22 58//22
f 83//23 81//23 84//23
f 57//24 58//24 59//24
f 48//25 83//25 47//25
f 59//26 60//26 61//26
f 85//27 60//27 66//27
f 79//28 80//28 81//28
f 64//29 84//29 87//29
f 54//30 52//30 68//30
f 77//31 78//31 79//31
f 65//32 47//32 64//32
f 76//33 74//33 63//33
f 75//34 76//34 77//34
f 88//35 74//35 86//35
f 78//36 76//36 69//36
f 73//37 74//37 75//37
f 66//38 58//38 67//38
f 50//8 49//8 47//8
f 68//39 72//39 71//39
f 71//39 65//39 86//39
f 64//39 87//39 70//39
f 70//39 69//39 63//39
f 63//39 88//39 64//39
f 86//39 85//39 66//39
f 66//39 67//39 68//39
f 68//39 71//39 66//39
f 64//39 70//39 63//39
f 88//39 65//39 64//39
f 66//39 71//39 86//39
f 52//40 50//40 72//40
f 80//41 78//41 70//41
f 61//11 62//11 73//11
f 92//15 89//15 113//15
f 93//16 91//16 94//16
f 128//17 104//17 127//17
f 95//18 93//18 96//18
f 129//19 124//19 112//19
f 95//20 96//20 97//20
f 98//21 96//21 109//21
f 99//22 97//22 100//22
f 125//23 123//23 126//23
f 99//24 100//24 101//24
f 90//25 125//25 89//25
f 101//26 102//26 103//26
f 127//27 102//27 108//27
f 123//28 121//28 124//28
f 106//29 126//29 129//29
f 96//30 94//30 110//30
f 119//31 120//31 121//31
f 107//32 89//32 106//32
f 118//33 116//33 105//33
f 119//34 117//34 120//34
f 130//35 116//35 128//35
f 120//36 118//36 111//36
f 117//37 115//37 118//37
f 108//38 100//38 109//38
f 92//8 91//8 89//8
f 110//39 114//39 113//39
f 113//39 107//39 128//39
f 106//39 129//39 112//39
f 112//39 111//39 105//39
f 105//39 130//39 106//39
f 128//39 127//39 108//39
f 108//39 109//39 110//39
f 110//39 113//39 108//39
f 106//39 112//39 105//39
f 130//39 107//39 106//39
f 108//39 113//39 128//39
f 94//40 92//40 114//40
f 122//41 120//41 112//41
f 103//11 104//11 115//11
f 134//15 131//15 155//15
f 135//16 133//16 136//16
f 170//17 146//17 169//17
f 137//18 135//18 138//18
f 171//19 166//19 154//19
f 137//20 138//20 139//20
f 140//21 138//21 151//21
f 141//22 139//22 142//22
f 167//23 165//23 168//23
f 141//24 142//24 143//24
f 132//25 167//25 131//25
f 143//26 144//26 145//26
f 169//27 144//27 150//27
f 163//28 164//28 165//28
f 148//29 168//29 171//29
f 138//30 136//30 152//30
f 161//31 162//31 163//31
f 149//32 131//32 148//32
f 160//33 158//33 147//33
f 161//34 159//34 162//34
f 172//35 158//35 170//35
f 162//36 160//36 153//36
f 159//37 157//37 160//37
f 150//46 142//46 151//46
f 134//8 133//8 131//8
f 152//39 156//39 155//39
f 155//39 149//39 170//39
f 148//39 171//39 154//39
f 154//39 153//39 147//39
f 147//39 172//39 148//39
f 170//39 169//39 150//39
f 150//39 151//39 152//39
f 152//39 155//39 150//39
f 148//39 154//39 147//39
f 172//39 149//39 148//39
f 150//39 155//39 170//39
f 136//40 134//40 156//40
f 164//41 162//41 154//41
f 145//11 146//11 157//11
