# Blender v2.76 (sub 0) OBJ File: 'railgun_main.blend'
# www.blender.org
o Cylinder.001
v 0.000000 1.125000 -0.762500
v 0.000000 1.125000 0.762500
v 0.062500 1.108253 -0.762500
v 0.062500 1.108253 0.762500
v 0.108253 1.062500 -0.762500
v 0.108253 1.062500 0.762500
v 0.125000 1.000000 -0.762500
v 0.125000 1.000000 0.762500
v 0.108253 0.937500 -0.762500
v 0.108253 0.937500 0.762500
v 0.062500 0.891747 -0.762500
v 0.062500 0.891747 0.762500
v 0.000000 0.875000 -0.762500
v 0.000000 0.875000 0.762500
v -0.062500 0.891747 -0.762500
v -0.062500 0.891747 0.762500
v -0.108253 0.937500 -0.762500
v -0.108253 0.937500 0.762500
v -0.125000 1.000000 -0.762500
v -0.125000 1.000000 0.762500
v -0.108253 1.062500 -0.762500
v -0.108253 1.062500 0.762500
v -0.062500 1.108253 -0.762500
v -0.062500 1.108253 0.762500
v -0.750000 0.500000 0.375000
v -0.750000 1.250000 0.625000
v -0.750000 0.500000 -0.375000
v -0.750000 1.250000 -0.625000
v 0.750000 0.500000 0.375000
v 0.750000 1.250000 0.625000
v 0.750000 0.500000 -0.375000
v 0.750000 1.250000 -0.625000
v -0.750000 1.375000 0.625000
v -0.750000 1.375000 -0.625000
v 0.750000 1.375000 -0.625000
v 0.750000 1.375000 0.625000
v -0.750000 1.625000 0.375000
v -0.750000 1.625000 -0.375000
v 0.750000 1.625000 -0.375000
v 0.750000 1.625000 0.375000
v 0.750000 0.625000 0.375000
v 0.750000 1.500000 0.375000
v 0.750000 0.625000 -0.375000
v 0.750000 1.500000 -0.375000
v 0.812500 0.625000 0.375000
v 0.812500 1.500000 0.375000
v 0.812500 0.625000 -0.375000
v 0.812500 1.500000 -0.375000
v 0.000000 1.375000 0.375000
v 0.000000 1.625000 0.375000
v 0.088388 1.375000 0.411612
v 0.088388 1.625000 0.411612
v 0.125000 1.375000 0.500000
v 0.125000 1.625000 0.500000
v 0.088388 1.375000 0.588388
v 0.088388 1.625000 0.588388
v -0.000000 1.375000 0.625000
v -0.000000 1.625000 0.625000
v -0.088388 1.375000 0.588388
v -0.088388 1.625000 0.588388
v -0.125000 1.375000 0.500000
v -0.125000 1.625000 0.500000
v -0.088388 1.375000 0.411612
v -0.088388 1.625000 0.411612
v 0.044194 1.687500 0.455806
v -0.000000 1.687500 0.437500
v 0.062500 1.687500 0.500000
v 0.044194 1.687500 0.544194
v -0.000000 1.687500 0.562500
v -0.044194 1.687500 0.544194
v -0.062500 1.687500 0.500000
v -0.044194 1.687500 0.455806
v 0.000000 1.375000 -0.625000
v 0.000000 1.625000 -0.625000
v 0.088388 1.375000 -0.588388
v 0.088388 1.625000 -0.588388
v 0.125000 1.375000 -0.500000
v 0.125000 1.625000 -0.500000
v 0.088388 1.375000 -0.411612
v 0.088388 1.625000 -0.411612
v -0.000000 1.375000 -0.375000
v -0.000000 1.625000 -0.375000
v -0.088388 1.375000 -0.411612
v -0.088388 1.625000 -0.411612
v -0.125000 1.375000 -0.500000
v -0.125000 1.625000 -0.500000
v -0.088388 1.375000 -0.588388
v -0.088388 1.625000 -0.588388
v 0.044194 1.687500 -0.544194
v -0.000000 1.687500 -0.562500
v 0.062500 1.687500 -0.500000
v 0.044194 1.687500 -0.455806
v -0.000000 1.687500 -0.437500
v -0.044194 1.687500 -0.455806
v -0.062500 1.687500 -0.500000
v -0.044194 1.687500 -0.544194
v -0.400000 1.375000 -0.625000
v -0.400000 1.625000 -0.625000
v -0.311612 1.375000 -0.588388
v -0.311612 1.625000 -0.588388
v -0.275000 1.375000 -0.500000
v -0.275000 1.625000 -0.500000
v -0.311612 1.375000 -0.411612
v -0.311612 1.625000 -0.411612
v -0.400000 1.375000 -0.375000
v -0.400000 1.625000 -0.375000
v -0.488388 1.375000 -0.411612
v -0.488388 1.625000 -0.411612
v -0.525000 1.375000 -0.500000
v -0.525000 1.625000 -0.500000
v -0.488388 1.375000 -0.588388
v -0.488388 1.625000 -0.588388
v -0.355806 1.687500 -0.544194
v -0.400000 1.687500 -0.562500
v -0.337500 1.687500 -0.500000
v -0.355806 1.687500 -0.455806
v -0.400000 1.687500 -0.437500
v -0.444194 1.687500 -0.455806
v -0.462500 1.687500 -0.500000
v -0.444194 1.687500 -0.544194
v -0.400000 1.375000 0.375000
v -0.400000 1.625000 0.375000
v -0.311612 1.375000 0.411612
v -0.311612 1.625000 0.411612
v -0.275000 1.375000 0.500000
v -0.275000 1.625000 0.500000
v -0.311612 1.375000 0.588388
v -0.311612 1.625000 0.588388
v -0.400000 1.375000 0.625000
v -0.400000 1.625000 0.625000
v -0.488388 1.375000 0.588388
v -0.488388 1.625000 0.588388
v -0.525000 1.375000 0.500000
v -0.525000 1.625000 0.500000
v -0.488388 1.375000 0.411612
v -0.488388 1.625000 0.411612
v -0.355806 1.687500 0.455806
v -0.400000 1.687500 0.437500
v -0.337500 1.687500 0.500000
v -0.355806 1.687500 0.544194
v -0.400000 1.687500 0.562500
v -0.444194 1.687500 0.544194
v -0.462500 1.687500 0.500000
v -0.444194 1.687500 0.455806
v 0.400000 1.375000 0.375000
v 0.400000 1.625000 0.375000
v 0.488388 1.375000 0.411612
v 0.488388 1.625000 0.411612
v 0.525000 1.375000 0.500000
v 0.525000 1.625000 0.500000
v 0.488388 1.375000 0.588388
v 0.488388 1.625000 0.588388
v 0.400000 1.375000 0.625000
v 0.400000 1.625000 0.625000
v 0.311612 1.375000 0.588388
v 0.311612 1.625000 0.588388
v 0.275000 1.375000 0.500000
v 0.275000 1.625000 0.500000
v 0.311612 1.375000 0.411612
v 0.311612 1.625000 0.411612
v 0.444194 1.687500 0.455806
v 0.400000 1.687500 0.437500
v 0.462500 1.687500 0.500000
v 0.444194 1.687500 0.544194
v 0.400000 1.687500 0.562500
v 0.355806 1.687500 0.544194
v 0.337500 1.687500 0.500000
v 0.355806 1.687500 0.455806
v 0.400000 1.375000 -0.625000
v 0.400000 1.625000 -0.625000
v 0.488388 1.375000 -0.588388
v 0.488388 1.625000 -0.588388
v 0.525000 1.375000 -0.500000
v 0.525000 1.625000 -0.500000
v 0.488388 1.375000 -0.411612
v 0.488388 1.625000 -0.411612
v 0.400000 1.375000 -0.375000
v 0.400000 1.625000 -0.375000
v 0.311612 1.375000 -0.411612
v 0.311612 1.625000 -0.411612
v 0.275000 1.375000 -0.500000
v 0.275000 1.625000 -0.500000
v 0.311612 1.375000 -0.588388
v 0.311612 1.625000 -0.588388
v 0.444194 1.687500 -0.544194
v 0.400000 1.687500 -0.562500
v 0.462500 1.687500 -0.500000
v 0.444194 1.687500 -0.455806
v 0.400000 1.687500 -0.437500
v 0.355806 1.687500 -0.455806
v 0.337500 1.687500 -0.500000
v 0.355806 1.687500 -0.544194
v -1.250000 1.000000 -0.500000
v -0.750000 1.000000 -0.500000
v -1.250000 0.750000 -0.433013
v -0.750000 0.750000 -0.433013
v -1.250000 0.566987 -0.250000
v -0.750000 0.566987 -0.250000
v -1.250000 0.500000 0.000000
v -0.750000 0.500000 0.000000
v -1.250000 0.566987 0.250000
v -0.750000 0.566987 0.250000
v -1.250000 0.750000 0.433013
v -0.750000 0.750000 0.433013
v -1.250000 1.000000 0.500000
v -0.750000 1.000000 0.500000
v -1.250000 1.250000 0.433013
v -0.750000 1.250000 0.433013
v -1.250000 1.433013 0.250000
v -0.750000 1.433013 0.250000
v -1.250000 1.500000 0.000000
v -0.750000 1.500000 0.000000
v -1.250000 1.433013 -0.250000
v -0.750000 1.433013 -0.250000
v -1.250000 1.250000 -0.433013
v -0.750000 1.250000 -0.433013
v -5.250000 0.820873 -0.031250
v -1.375000 0.820873 -0.031250
v -1.375000 0.820873 0.031250
v -5.250000 0.820873 0.031250
v -5.250000 1.062500 0.170753
v -1.375000 1.062500 0.170753
v -1.375000 1.116627 0.139503
v -5.250000 1.116627 0.139503
v -5.250000 1.116627 -0.139503
v -1.375000 1.116627 -0.139503
v -1.375000 1.062500 -0.170753
v -5.250000 1.062500 -0.170753
v -5.250000 0.758179 -0.042187
v -5.250000 0.758179 0.042188
v -5.250000 1.084375 0.230517
v -5.250000 1.157446 0.188329
v -5.250000 1.084375 -0.230517
v -5.250000 1.157446 -0.188329
v -5.375000 0.758179 -0.042187
v -5.375000 0.758179 0.042188
v -5.375000 1.084375 0.230517
v -5.375000 1.157446 0.188329
v -5.375000 1.084375 -0.230517
v -5.375000 1.157446 -0.188329
v -5.375000 1.118084 -0.141247
v -5.375000 1.063281 -0.172888
v -5.375000 1.118084 0.141247
v -5.375000 1.063281 0.172888
v -5.375000 0.818634 0.031641
v -5.375000 0.818634 -0.031640
v -1.375000 1.358253 0.062500
v -1.375000 1.358253 -0.062500
v -1.375000 0.875000 -0.341506
v -1.375000 0.766747 -0.279006
v -1.375000 0.766747 0.279007
v -1.375000 0.875000 0.341507
v -1.250000 1.358253 -0.062500
v -1.250000 1.358253 0.062500
v -1.250000 0.766747 -0.279006
v -1.250000 0.875000 -0.341506
v -1.250000 0.875000 0.341507
v -1.250000 0.766747 0.279007
v -4.875000 0.909317 0.015820
v -4.875000 1.031641 0.086443
v -4.875000 1.059042 0.070623
v -4.875000 1.059042 -0.070624
v -4.875000 1.031641 -0.086445
v -4.875000 0.909317 -0.015821
v -4.000000 0.820873 -0.031250
v -4.000000 0.820873 0.031250
v -4.000000 1.062500 0.170753
v -4.000000 1.116627 0.139503
v -4.000000 1.116627 -0.139503
v -4.000000 1.062500 -0.170753
v -2.625000 0.820873 -0.031250
v -2.625000 0.820873 0.031250
v -2.625000 1.062500 0.170753
v -2.625000 1.116627 0.139503
v -2.625000 1.116627 -0.139503
v -2.625000 1.062500 -0.170753
v -4.000000 0.758179 -0.042187
v -4.000000 0.758179 0.042188
v -4.000000 1.084375 0.230517
v -4.000000 1.157446 0.188329
v -4.000000 1.084375 -0.230517
v -4.000000 1.157446 -0.188329
v -2.625000 0.758179 -0.042187
v -2.625000 0.758179 0.042188
v -2.625000 1.084375 0.230517
v -2.625000 1.157446 0.188329
v -2.625000 1.084375 -0.230517
v -2.625000 1.157446 -0.188329
vn 0.258800 0.965900 0.000000
vn 0.707100 0.707100 0.000000
vn 0.965900 0.258800 0.000000
vn 0.965900 -0.258800 0.000000
vn 0.707100 -0.707100 0.000000
vn 0.258800 -0.965900 0.000000
vn -0.258800 -0.965900 0.000000
vn -0.707100 -0.707100 0.000000
vn -0.965900 -0.258800 0.000000
vn -0.965900 0.258800 0.000000
vn 0.000000 0.000000 1.000000
vn -0.258800 0.965900 0.000000
vn -0.707100 0.707100 0.000000
vn -0.000000 0.000000 -1.000000
vn 0.000000 -0.316200 -0.948700
vn 0.000000 -0.316200 0.948700
vn 0.000000 -1.000000 0.000000
vn 1.000000 0.000000 0.000000
vn 0.000000 1.000000 0.000000
vn -1.000000 0.000000 0.000000
vn 0.000000 0.707100 0.707100
vn 0.000000 0.707100 -0.707100
vn 0.382700 0.000000 -0.923900
vn 0.923900 0.000000 -0.382700
vn 0.923900 0.000000 0.382700
vn 0.382700 0.000000 0.923900
vn -0.382700 0.000000 0.923900
vn -0.923900 0.000000 0.382700
vn -0.281100 0.678600 0.678600
vn -0.382700 0.000000 -0.923900
vn -0.923900 0.000000 -0.382700
vn -0.281100 0.678600 -0.678600
vn 0.281100 0.678600 -0.678600
vn 0.678600 0.678600 0.281100
vn -0.678600 0.678600 0.281100
vn 0.281100 0.678600 0.678600
vn -0.678600 0.678600 -0.281100
vn 0.678600 0.678600 -0.281100
vn 0.000000 -0.258800 -0.965900
vn 0.000000 -0.707100 -0.707100
vn 0.000000 -0.965900 -0.258800
vn 0.000000 -0.965900 0.258800
vn 0.000000 -0.707100 0.707100
vn 0.000000 -0.258800 0.965900
vn 0.000000 0.258800 0.965900
vn 0.000000 0.965900 0.258800
vn 0.000000 0.965900 -0.258800
vn 0.000000 0.258800 -0.965900
vn 0.000000 -0.500000 -0.866000
vn 0.000000 -0.500000 0.866000
vn 0.000000 0.500000 -0.866000
vn 0.000000 0.500000 0.866000
vn -0.117300 0.496600 0.860100
vn -0.117300 -0.993100 0.000000
vn -0.178500 -0.492000 -0.852100
vn -0.178500 -0.492000 0.852100
vn -0.117300 0.496500 -0.860100
vn -0.178500 0.983900 0.000000
vn -0.117300 0.496600 0.860000
s off
f 2//1 4//1 3//1
f 4//2 6//2 5//2
f 6//3 8//3 7//3
f 8//4 10//4 9//4
f 10//5 12//5 11//5
f 12//6 14//6 13//6
f 13//7 14//7 16//7
f 16//8 18//8 17//8
f 18//9 20//9 19//9
f 20//10 22//10 21//10
f 22//11 14//11 6//11
f 24//12 2//12 1//12
f 22//13 24//13 23//13
f 7//14 15//14 23//14
f 32//15 31//15 27//15
f 26//16 25//16 29//16
f 27//17 31//17 29//17
f 30//11 36//11 33//11
f 28//14 34//14 35//14
f 39//18 30//18 32//18
f 39//19 38//19 37//19
f 37//20 28//20 26//20
f 36//21 40//21 37//21
f 34//22 38//22 39//22
f 44//20 43//20 41//20
f 48//14 47//14 43//14
f 46//18 45//18 47//18
f 42//11 41//11 45//11
f 43//17 47//17 45//17
f 48//19 44//19 42//19
f 50//23 52//23 51//23
f 52//24 54//24 53//24
f 54//25 56//25 55//25
f 56//26 58//26 57//26
f 58//27 60//27 59//27
f 60//28 62//28 61//28
f 60//29 58//29 69//29
f 64//30 50//30 49//30
f 62//31 64//31 63//31
f 55//17 59//17 63//17
f 71//19 69//19 66//19
f 64//32 72//32 66//32
f 50//33 66//33 65//33
f 56//34 54//34 67//34
f 60//35 70//35 71//35
f 56//36 68//36 69//36
f 64//37 62//37 71//37
f 52//38 65//38 67//38
f 74//23 76//23 75//23
f 76//24 78//24 77//24
f 78//25 80//25 79//25
f 80//26 82//26 81//26
f 82//27 84//27 83//27
f 84//28 86//28 85//28
f 82//29 93//29 94//29
f 88//30 74//30 73//30
f 86//31 88//31 87//31
f 95//19 93//19 90//19
f 88//32 96//32 90//32
f 76//33 74//33 90//33
f 80//34 78//34 91//34
f 84//35 94//35 95//35
f 80//36 92//36 93//36
f 88//37 86//37 95//37
f 76//38 89//38 91//38
f 98//23 100//23 99//23
f 100//24 102//24 101//24
f 102//25 104//25 103//25
f 104//26 106//26 105//26
f 106//27 108//27 107//27
f 108//28 110//28 109//28
f 106//29 117//29 118//29
f 112//30 98//30 97//30
f 110//31 112//31 111//31
f 119//19 117//19 114//19
f 98//32 112//32 120//32
f 100//33 98//33 114//33
f 104//34 102//34 115//34
f 108//35 118//35 119//35
f 106//36 104//36 116//36
f 112//37 110//37 119//37
f 100//38 113//38 115//38
f 122//23 124//23 123//23
f 124//24 126//24 125//24
f 126//25 128//25 127//25
f 128//26 130//26 129//26
f 130//27 132//27 131//27
f 132//28 134//28 133//28
f 130//29 141//29 142//29
f 136//30 122//30 121//30
f 134//31 136//31 135//31
f 143//19 140//19 139//19
f 136//32 144//32 138//32
f 122//33 138//33 137//33
f 126//34 139//34 140//34
f 132//35 142//35 143//35
f 128//36 140//36 141//36
f 136//37 134//37 143//37
f 124//38 137//38 139//38
f 146//23 148//23 147//23
f 148//24 150//24 149//24
f 150//25 152//25 151//25
f 152//26 154//26 153//26
f 154//27 156//27 155//27
f 156//28 158//28 157//28
f 156//29 154//29 165//29
f 160//30 146//30 145//30
f 158//31 160//31 159//31
f 167//19 164//19 163//19
f 160//32 168//32 162//32
f 146//33 162//33 161//33
f 152//34 150//34 163//34
f 158//35 156//35 166//35
f 154//36 152//36 164//36
f 158//37 167//37 168//37
f 148//38 161//38 163//38
f 170//23 172//23 171//23
f 172//24 174//24 173//24
f 174//25 176//25 175//25
f 176//26 178//26 177//26
f 178//27 180//27 179//27
f 180//28 182//28 181//28
f 178//29 189//29 190//29
f 184//30 170//30 169//30
f 182//31 184//31 183//31
f 191//19 189//19 186//19
f 184//32 192//32 186//32
f 172//33 170//33 186//33
f 176//34 174//34 187//34
f 182//35 180//35 190//35
f 178//36 176//36 188//36
f 182//37 191//37 192//37
f 172//38 185//38 187//38
f 194//39 196//39 195//39
f 196//40 198//40 197//40
f 198//41 200//41 199//41
f 200//42 202//42 201//42
f 202//43 204//43 203//43
f 204//44 206//44 205//44
f 206//45 208//45 207//45
f 208//21 210//21 209//21
f 210//46 212//46 211//46
f 212//47 214//47 213//47
f 215//48 216//48 194//48
f 214//22 216//22 215//22
f 199//20 211//20 215//20
f 227//49 218//49 271//49
f 219//50 222//50 273//50
f 274//19 223//19 226//19
f 217//18 220//18 230//18
f 275//51 226//51 227//51
f 223//52 274//52 273//52
f 219//17 272//17 271//17
f 231//50 237//50 236//50
f 217//18 229//18 233//18
f 221//18 231//18 230//18
f 225//18 234//18 232//18
f 228//18 233//18 234//18
f 224//18 232//18 231//18
f 233//51 239//51 240//51
f 232//52 238//52 237//52
f 234//19 240//19 238//19
f 229//49 235//49 239//49
f 230//17 236//17 235//17
f 238//20 243//20 244//20
f 240//20 239//20 242//20
f 237//20 244//20 245//20
f 236//20 245//20 246//20
f 235//20 246//20 242//20
f 242//53 246//53 264//53
f 238//20 240//20 241//20
f 248//20 250//20 247//20
f 248//51 253//51 256//51
f 251//50 258//50 257//50
f 249//49 256//49 255//49
f 250//17 255//17 258//17
f 252//52 257//52 254//52
f 247//19 254//19 253//19
f 259//20 262//20 263//20
f 241//54 262//54 261//54
f 243//55 261//55 260//55
f 241//56 242//56 263//56
f 244//57 260//57 259//57
f 246//58 245//58 259//58
f 275//18 288//18 286//18
f 274//18 286//18 285//18
f 285//18 284//18 272//18
f 284//18 283//18 271//18
f 271//18 283//18 287//18
f 287//18 288//18 275//18
f 224//19 268//19 269//19
f 225//51 269//51 270//51
f 270//49 265//49 217//49
f 217//17 265//17 266//17
f 220//50 266//50 267//50
f 221//52 267//52 268//52
f 269//20 268//20 280//20
f 268//20 267//20 279//20
f 266//20 278//20 279//20
f 265//20 277//20 278//20
f 270//20 281//20 277//20
f 269//20 282//20 281//20
f 278//50 284//50 285//50
f 277//17 283//17 284//17
f 287//49 283//49 277//49
f 282//51 288//51 287//51
f 280//19 286//19 288//19
f 279//52 285//52 286//52
f 1//1 2//1 3//1
f 3//2 4//2 5//2
f 5//3 6//3 7//3
f 7//4 8//4 9//4
f 9//5 10//5 11//5
f 11//6 12//6 13//6
f 15//7 13//7 16//7
f 15//8 16//8 17//8
f 17//9 18//9 19//9
f 19//10 20//10 21//10
f 6//11 4//11 2//11
f 2//11 24//11 6//11
f 22//11 20//11 18//11
f 18//11 16//11 14//11
f 14//11 12//11 6//11
f 10//11 8//11 6//11
f 6//11 24//11 22//11
f 22//11 18//11 14//11
f 12//11 10//11 6//11
f 23//12 24//12 1//12
f 21//13 22//13 23//13
f 23//14 1//14 3//14
f 3//14 5//14 23//14
f 7//14 9//14 15//14
f 11//14 13//14 15//14
f 15//14 17//14 19//14
f 19//14 21//14 23//14
f 23//14 5//14 7//14
f 9//14 11//14 15//14
f 15//14 19//14 23//14
f 28//15 32//15 27//15
f 30//16 26//16 29//16
f 25//17 27//17 29//17
f 26//11 30//11 33//11
f 32//14 28//14 35//14
f 29//18 31//18 32//18
f 32//18 35//18 39//18
f 39//18 40//18 30//18
f 36//18 30//18 40//18
f 29//18 32//18 30//18
f 40//19 39//19 37//19
f 27//20 25//20 26//20
f 26//20 33//20 37//20
f 37//20 38//20 28//20
f 34//20 28//20 38//20
f 27//20 26//20 28//20
f 33//21 36//21 37//21
f 35//22 34//22 39//22
f 42//20 44//20 41//20
f 44//14 48//14 43//14
f 48//18 46//18 47//18
f 46//11 42//11 45//11
f 41//17 43//17 45//17
f 46//19 48//19 42//19
f 49//23 50//23 51//23
f 51//24 52//24 53//24
f 53//25 54//25 55//25
f 55//26 56//26 57//26
f 57//27 58//27 59//27
f 59//28 60//28 61//28
f 70//29 60//29 69//29
f 63//30 64//30 49//30
f 61//31 62//31 63//31
f 63//17 49//17 51//17
f 51//17 53//17 55//17
f 55//17 57//17 59//17
f 59//17 61//17 63//17
f 63//17 51//17 55//17
f 67//19 65//19 66//19
f 66//19 72//19 71//19
f 71//19 70//19 69//19
f 69//19 68//19 67//19
f 67//19 66//19 69//19
f 50//32 64//32 66//32
f 52//33 50//33 65//33
f 68//34 56//34 67//34
f 62//35 60//35 71//35
f 58//36 56//36 69//36
f 72//37 64//37 71//37
f 54//38 52//38 67//38
f 73//23 74//23 75//23
f 75//24 76//24 77//24
f 77//25 78//25 79//25
f 79//26 80//26 81//26
f 81//27 82//27 83//27
f 83//28 84//28 85//28
f 84//29 82//29 94//29
f 87//30 88//30 73//30
f 85//31 86//31 87//31
f 91//19 89//19 90//19
f 90//19 96//19 95//19
f 95//19 94//19 93//19
f 93//19 92//19 91//19
f 91//19 90//19 93//19
f 74//32 88//32 90//32
f 89//33 76//33 90//33
f 92//34 80//34 91//34
f 86//35 84//35 95//35
f 82//36 80//36 93//36
f 96//37 88//37 95//37
f 78//38 76//38 91//38
f 97//23 98//23 99//23
f 99//24 100//24 101//24
f 101//25 102//25 103//25
f 103//26 104//26 105//26
f 105//27 106//27 107//27
f 107//28 108//28 109//28
f 108//29 106//29 118//29
f 111//30 112//30 97//30
f 109//31 110//31 111//31
f 115//19 113//19 114//19
f 114//19 120//19 119//19
f 119//19 118//19 117//19
f 117//19 116//19 115//19
f 115//19 114//19 117//19
f 114//32 98//32 120//32
f 113//33 100//33 114//33
f 116//34 104//34 115//34
f 110//35 108//35 119//35
f 117//36 106//36 116//36
f 120//37 112//37 119//37
f 102//38 100//38 115//38
f 121//23 122//23 123//23
f 123//24 124//24 125//24
f 125//25 126//25 127//25
f 127//26 128//26 129//26
f 129//27 130//27 131//27
f 131//28 132//28 133//28
f 132//29 130//29 142//29
f 135//30 136//30 121//30
f 133//31 134//31 135//31
f 139//19 137//19 143//19
f 138//19 144//19 143//19
f 143//19 142//19 141//19
f 141//19 140//19 143//19
f 137//19 138//19 143//19
f 122//32 136//32 138//32
f 124//33 122//33 137//33
f 128//34 126//34 140//34
f 134//35 132//35 143//35
f 130//36 128//36 141//36
f 144//37 136//37 143//37
f 126//38 124//38 139//38
f 145//23 146//23 147//23
f 147//24 148//24 149//24
f 149//25 150//25 151//25
f 151//26 152//26 153//26
f 153//27 154//27 155//27
f 155//28 156//28 157//28
f 166//29 156//29 165//29
f 159//30 160//30 145//30
f 157//31 158//31 159//31
f 163//19 161//19 167//19
f 162//19 168//19 167//19
f 167//19 166//19 165//19
f 165//19 164//19 167//19
f 161//19 162//19 167//19
f 146//32 160//32 162//32
f 148//33 146//33 161//33
f 164//34 152//34 163//34
f 167//35 158//35 166//35
f 165//36 154//36 164//36
f 160//37 158//37 168//37
f 150//38 148//38 163//38
f 169//23 170//23 171//23
f 171//24 172//24 173//24
f 173//25 174//25 175//25
f 175//26 176//26 177//26
f 177//27 178//27 179//27
f 179//28 180//28 181//28
f 180//29 178//29 190//29
f 183//30 184//30 169//30
f 181//31 182//31 183//31
f 187//19 185//19 186//19
f 186//19 192//19 191//19
f 191//19 190//19 189//19
f 189//19 188//19 187//19
f 187//19 186//19 189//19
f 170//32 184//32 186//32
f 185//33 172//33 186//33
f 188//34 176//34 187//34
f 191//35 182//35 190//35
f 189//36 178//36 188//36
f 184//37 182//37 192//37
f 174//38 172//38 187//38
f 193//39 194//39 195//39
f 195//40 196//40 197//40
f 197//41 198//41 199//41
f 199//42 200//42 201//42
f 201//43 202//43 203//43
f 203//44 204//44 205//44
f 205//45 206//45 207//45
f 207//21 208//21 209//21
f 209//46 210//46 211//46
f 211//47 212//47 213//47
f 193//48 215//48 194//48
f 213//22 214//22 215//22
f 215//20 193//20 195//20
f 195//20 197//20 199//20
f 199//20 201//20 203//20
f 203//20 205//20 199//20
f 207//20 209//20 211//20
f 211//20 213//20 215//20
f 215//20 195//20 199//20
f 199//20 205//20 207//20
f 207//20 211//20 199//20
f 276//49 227//49 271//49
f 272//50 219//50 273//50
f 275//19 274//19 226//19
f 229//18 217//18 230//18
f 276//51 275//51 227//51
f 222//52 223//52 273//52
f 218//17 219//17 271//17
f 230//50 231//50 236//50
f 228//18 217//18 233//18
f 220//18 221//18 230//18
f 224//18 225//18 232//18
f 225//18 228//18 234//18
f 221//18 224//18 231//18
f 234//51 233//51 240//51
f 231//52 232//52 237//52
f 232//19 234//19 238//19
f 233//49 229//49 239//49
f 229//17 230//17 235//17
f 237//20 238//20 244//20
f 241//20 240//20 242//20
f 236//20 237//20 245//20
f 235//20 236//20 246//20
f 239//20 235//20 242//20
f 263//59 242//59 264//59
f 243//20 238//20 241//20
f 252//20 247//20 250//20
f 248//20 249//20 250//20
f 250//20 251//20 252//20
f 249//51 248//51 256//51
f 252//50 251//50 257//50
f 250//49 249//49 255//49
f 251//17 250//17 258//17
f 247//52 252//52 254//52
f 248//19 247//19 253//19
f 263//20 264//20 259//20
f 259//20 260//20 261//20
f 261//20 262//20 259//20
f 243//54 241//54 261//54
f 244//55 243//55 260//55
f 262//56 241//56 263//56
f 245//57 244//57 259//57
f 264//58 246//58 259//58
f 274//18 275//18 286//18
f 273//18 274//18 285//18
f 273//18 285//18 272//18
f 272//18 284//18 271//18
f 276//18 271//18 287//18
f 276//18 287//18 275//18
f 225//19 224//19 269//19
f 228//51 225//51 270//51
f 228//49 270//49 217//49
f 220//17 217//17 266//17
f 221//50 220//50 267//50
f 224//52 221//52 268//52
f 282//20 269//20 280//20
f 280//20 268//20 279//20
f 267//20 266//20 279//20
f 266//20 265//20 278//20
f 265//20 270//20 277//20
f 270//20 269//20 281//20
f 279//50 278//50 285//50
f 278//17 277//17 284//17
f 281//49 287//49 277//49
f 281//51 282//51 287//51
f 282//19 280//19 288//19
f 280//52 279//52 286//52
