# Blender v2.76 (sub 0) OBJ File: 'railgun_rotor.blend'
# www.blender.org
o Cube_Cube.001
v -0.187500 0.125000 0.887500
v -0.187500 0.875000 0.887500
v -0.187500 0.125000 0.762500
v -0.187500 0.875000 0.762500
v 0.187500 0.125000 0.887500
v 0.187500 0.875000 0.887500
v 0.187500 0.125000 0.762500
v 0.187500 0.875000 0.762500
v -0.093750 1.250000 0.887500
v -0.093750 1.250000 0.762500
v 0.093750 1.250000 0.762500
v 0.093750 1.250000 0.887500
v -0.187500 0.125000 -0.762500
v -0.187500 0.875000 -0.762500
v -0.187500 0.125000 -0.887500
v -0.187500 0.875000 -0.887500
v 0.187500 0.125000 -0.762500
v 0.187500 0.875000 -0.762500
v 0.187500 0.125000 -0.887500
v 0.187500 0.875000 -0.887500
v -0.093750 1.250000 -0.762500
v -0.093750 1.250000 -0.887500
v 0.093750 1.250000 -0.887500
v 0.093750 1.250000 -0.762500
vn -1.000000 0.000000 0.000000
vn 1.000000 0.000000 0.000000
vn 0.000000 -1.000000 0.000000
vn 0.000000 1.000000 0.000000
vn 0.970100 0.242500 0.000000
vn -0.970100 0.242500 0.000000
vn 0.000000 0.000000 -1.000000
vn 0.000000 0.000000 1.000000
s off
f 4//1 3//1 1//1
f 6//2 5//2 7//2
f 3//3 7//3 5//3
f 11//4 10//4 9//4
f 8//5 11//5 12//5
f 2//6 9//6 10//6
f 16//1 15//1 13//1
f 16//7 20//7 19//7
f 18//2 17//2 19//2
f 4//7 8//7 7//7
f 15//3 19//3 17//3
f 6//8 12//8 2//8
f 23//4 22//4 21//4
f 20//5 23//5 24//5
f 14//6 21//6 22//6
f 18//8 24//8 14//8
f 2//1 4//1 1//1
f 8//2 6//2 7//2
f 1//3 3//3 5//3
f 12//4 11//4 9//4
f 6//5 8//5 12//5
f 4//6 2//6 10//6
f 14//1 16//1 13//1
f 19//7 15//7 16//7
f 16//7 22//7 23//7
f 23//7 20//7 16//7
f 20//2 18//2 19//2
f 7//7 3//7 4//7
f 4//7 10//7 11//7
f 11//7 8//7 4//7
f 13//3 15//3 17//3
f 2//8 1//8 5//8
f 5//8 6//8 2//8
f 12//8 9//8 2//8
f 24//4 23//4 21//4
f 18//5 20//5 24//5
f 16//6 14//6 22//6
f 14//8 13//8 17//8
f 17//8 18//8 14//8
f 24//8 21//8 14//8
