# Blender v2.76 (sub 0) OBJ File: 'refinery_junior.blend'
# www.blender.org
o Cube_Cube.001
v 0.500000 0.000000 0.500000
v 0.500000 1.000000 0.500000
v -0.500000 0.000000 0.500000
v -0.500000 1.000000 0.500000
v 0.500000 0.000000 -0.500000
v 0.500000 1.000000 -0.500000
v -0.500000 0.000000 -0.500000
v -0.500000 1.000000 -0.500000
v -0.350000 1.000000 -0.000000
v -0.350000 4.875000 -0.000000
v -0.247487 1.000000 -0.247487
v -0.247487 4.875000 -0.247487
v 0.000000 1.000000 -0.350000
v 0.000000 4.875000 -0.350000
v 0.247487 1.000000 -0.247487
v 0.247487 4.875000 -0.247487
v 0.350000 1.000000 0.000000
v 0.350000 4.875000 0.000000
v 0.247487 1.000000 0.247487
v 0.247487 4.875000 0.247487
v -0.000000 1.000000 0.350000
v -0.000000 4.875000 0.350000
v -0.247487 1.000000 0.247487
v -0.247487 4.875000 0.247487
v -0.500000 4.875000 -0.000000
v -0.500000 5.000000 -0.000000
v -0.353553 4.875000 -0.353553
v -0.353553 5.000000 -0.353553
v 0.000000 4.875000 -0.500000
v 0.000000 5.000000 -0.500000
v 0.353553 4.875000 -0.353553
v 0.353553 5.000000 -0.353553
v 0.500000 4.875000 0.000000
v 0.500000 5.000000 0.000000
v 0.353553 4.875000 0.353553
v 0.353553 5.000000 0.353553
v -0.000000 4.875000 0.500000
v -0.000000 5.000000 0.500000
v -0.353553 4.875000 0.353553
v -0.353553 5.000000 0.353553
v 0.000000 1.000000 -0.300000
v 0.000000 4.875000 -0.300000
v -0.086603 1.000000 -0.350000
v -0.086603 4.875000 -0.350000
v -0.086602 1.000000 -0.450000
v -0.086602 4.875000 -0.450000
v 0.000000 1.000000 -0.500000
v 0.000000 4.875000 -0.500000
v 0.086603 1.000000 -0.450000
v 0.086603 4.875000 -0.450000
v 0.086603 1.000000 -0.350000
v 0.086603 4.875000 -0.350000
v -0.500000 3.875000 -0.000000
v -0.500000 4.000000 -0.000000
v -0.353553 3.875000 -0.353553
v -0.353553 4.000000 -0.353553
v 0.000000 3.875000 -0.500000
v 0.000000 4.000000 -0.500000
v 0.353553 3.875000 -0.353553
v 0.353553 4.000000 -0.353553
v 0.500000 3.875000 0.000000
v 0.500000 4.000000 0.000000
v 0.353553 3.875000 0.353553
v 0.353553 4.000000 0.353553
v -0.000000 3.875000 0.500000
v -0.000000 4.000000 0.500000
v -0.353553 3.875000 0.353553
v -0.353553 4.000000 0.353553
v -0.500000 1.875000 -0.000000
v -0.500000 2.000000 -0.000000
v -0.353553 1.875000 -0.353553
v -0.353553 2.000000 -0.353553
v 0.000000 1.875000 -0.500000
v 0.000000 2.000000 -0.500000
v 0.353553 1.875000 -0.353553
v 0.353553 2.000000 -0.353553
v 0.500000 1.875000 0.000000
v 0.500000 2.000000 0.000000
v 0.353553 1.875000 0.353553
v 0.353553 2.000000 0.353553
v -0.000000 1.875000 0.500000
v -0.000000 2.000000 0.500000
v -0.353553 1.875000 0.353553
v -0.353553 2.000000 0.353553
vt 0.510638 0.000000
vt 0.510638 0.170213
vt 0.340426 0.170213
vt 0.680851 0.000000
vt 0.680851 0.170213
vt 0.170213 0.000000
vt 0.170213 0.170213
vt 0.000000 0.170213
vt 0.340426 0.000000
vt 0.510638 0.340426
vt 0.340426 0.340426
vt 0.170213 0.340426
vt 0.340426 1.000000
vt 0.297872 1.000000
vt 0.297872 0.340426
vt 0.255319 1.000000
vt 0.255319 0.340426
vt 0.212766 1.000000
vt 0.212766 0.340426
vt 0.170213 1.000000
vt 0.127660 1.000000
vt 0.127660 0.340426
vt 0.085106 1.000000
vt 0.085106 0.340426
vt 0.042553 1.000000
vt 0.000000 1.000000
vt 0.000000 0.340426
vt 0.042553 0.340426
vt 0.978723 0.361702
vt 0.914894 0.361702
vt 0.914894 0.340426
vt 0.851064 0.361702
vt 0.851064 0.340426
vt 0.787234 0.361702
vt 0.787234 0.340426
vt 0.723404 0.361702
vt 0.723404 0.340426
vt 0.659574 0.361702
vt 0.659574 0.340426
vt 0.595745 0.361702
vt 0.595745 0.340426
vt 0.612644 0.387356
vt 0.553191 0.362730
vt 0.469113 0.446808
vt 0.531915 0.361702
vt 0.468085 0.361702
vt 0.468085 0.340426
vt 0.531915 0.340426
vt 0.781920 0.388293
vt 0.640651 0.446809
vt 0.664889 0.505324
vt 0.468085 1.000000
vt 0.446809 1.000000
vt 0.446809 0.340426
vt 0.425532 1.000000
vt 0.425532 0.340426
vt 0.404255 1.000000
vt 0.404255 0.340426
vt 0.382979 1.000000
vt 0.382979 0.340426
vt 0.361702 1.000000
vt 0.361702 0.340426
vt 0.637270 0.446809
vt 0.000000 -0.000000
vt 0.978723 0.340426
vt 0.493739 0.506261
vt 0.553191 0.530887
vt 0.612644 0.506261
vt 0.493739 0.387356
vt 0.723404 0.529562
vt 0.781920 0.505324
vt 0.806158 0.446809
vt 0.723404 0.364055
vt 0.664889 0.388293
vn -0.000000 0.000000 1.000000
vn -1.000000 0.000000 -0.000000
vn 0.000000 0.000000 -1.000000
vn 1.000000 0.000000 0.000000
vn 0.000000 -1.000000 0.000000
vn 0.000000 1.000000 0.000000
vn -0.923900 0.000000 -0.382700
vn -0.382700 0.000000 -0.923900
vn 0.382700 0.000000 -0.923900
vn 0.923900 0.000000 -0.382700
vn 0.923900 0.000000 0.382700
vn 0.382700 0.000000 0.923900
vn -0.923900 0.000000 0.382700
vn -0.382700 0.000000 0.923900
vn -0.500000 0.000000 0.866000
vn -0.500000 0.000000 -0.866000
vn 0.500000 0.000000 -0.866000
vn 0.500000 0.000000 0.866000
s off
f 4/1/1 3/2/1 1/3/1
f 8/4/2 7/5/2 3/2/2
f 6/6/3 5/7/3 7/8/3
f 2/9/4 1/3/4 5/7/4
f 3/10/5 7/11/5 5/3/5
f 8/11/6 4/12/6 2/7/6
f 10/13/7 12/14/7 11/15/7
f 12/14/8 14/16/8 13/17/8
f 14/16/9 16/18/9 15/19/9
f 16/18/10 18/20/10 17/12/10
f 18/20/11 20/21/11 19/22/11
f 20/21/12 22/23/12 21/24/12
f 24/25/13 10/26/13 9/27/13
f 22/23/14 24/25/14 23/28/14
f 26/29/7 28/30/7 27/31/7
f 28/30/8 30/32/8 29/33/8
f 30/32/9 32/34/9 31/35/9
f 32/34/10 34/36/10 33/37/10
f 34/36/11 36/38/11 35/39/11
f 36/38/12 38/40/12 37/41/12
f 36/42/6 34/43/6 30/44/6
f 40/45/13 26/46/13 25/47/13
f 38/40/14 40/45/14 39/48/14
f 31/49/5 37/50/5 39/51/5
f 42/52/15 44/53/15 43/54/15
f 44/53/2 46/55/2 45/56/2
f 46/55/16 48/57/16 47/58/16
f 48/57/17 50/59/17 49/60/17
f 52/61/18 42/13/18 41/11/18
f 50/59/4 52/61/4 51/62/4
f 54/29/7 56/30/7 55/31/7
f 56/30/8 58/32/8 57/33/8
f 58/32/9 60/34/9 59/35/9
f 60/34/10 62/36/10 61/37/10
f 62/36/11 64/38/11 63/39/11
f 64/38/12 66/40/12 65/41/12
f 66/63/6 62/43/6 58/44/6
f 68/45/13 54/46/13 53/47/13
f 66/40/14 68/45/14 67/48/14
f 59/49/5 65/50/5 67/51/5
f 70/29/7 72/30/7 71/31/7
f 72/30/8 74/32/8 73/33/8
f 74/32/9 76/34/9 75/35/9
f 76/34/10 78/36/10 77/37/10
f 78/36/11 80/38/11 79/39/11
f 80/38/12 82/40/12 81/41/12
f 82/63/6 78/43/6 74/44/6
f 84/45/13 70/46/13 69/47/13
f 82/40/14 84/45/14 83/48/14
f 75/49/5 81/50/5 83/51/5
f 2/9/1 4/1/1 1/3/1
f 4/1/2 8/4/2 3/2/2
f 8/64/3 6/6/3 7/8/3
f 6/6/4 2/9/4 5/7/4
f 1/2/5 3/10/5 5/3/5
f 6/3/6 8/11/6 2/7/6
f 9/11/7 10/13/7 11/15/7
f 11/15/8 12/14/8 13/17/8
f 13/17/9 14/16/9 15/19/9
f 15/19/10 16/18/10 17/12/10
f 17/12/11 18/20/11 19/22/11
f 19/22/12 20/21/12 21/24/12
f 23/28/13 24/25/13 9/27/13
f 21/24/14 22/23/14 23/28/14
f 25/65/7 26/29/7 27/31/7
f 27/31/8 28/30/8 29/33/8
f 29/33/9 30/32/9 31/35/9
f 31/35/10 32/34/10 33/37/10
f 33/37/11 34/36/11 35/39/11
f 35/39/12 36/38/12 37/41/12
f 30/44/6 28/66/6 26/67/6
f 26/67/6 40/68/6 30/44/6
f 38/63/6 36/42/6 30/44/6
f 34/43/6 32/69/6 30/44/6
f 30/44/6 40/68/6 38/63/6
f 39/48/13 40/45/13 25/47/13
f 37/41/14 38/40/14 39/48/14
f 39/51/5 25/70/5 27/71/5
f 27/71/5 29/72/5 31/49/5
f 31/49/5 33/73/5 35/74/5
f 35/74/5 37/50/5 31/49/5
f 39/51/5 27/71/5 31/49/5
f 41/47/15 42/52/15 43/54/15
f 43/54/2 44/53/2 45/56/2
f 45/56/16 46/55/16 47/58/16
f 47/58/17 48/57/17 49/60/17
f 51/62/18 52/61/18 41/11/18
f 49/60/4 50/59/4 51/62/4
f 53/65/7 54/29/7 55/31/7
f 55/31/8 56/30/8 57/33/8
f 57/33/9 58/32/9 59/35/9
f 59/35/10 60/34/10 61/37/10
f 61/37/11 62/36/11 63/39/11
f 63/39/12 64/38/12 65/41/12
f 58/44/6 56/66/6 54/67/6
f 54/67/6 68/68/6 66/63/6
f 66/63/6 64/42/6 62/43/6
f 62/43/6 60/69/6 58/44/6
f 58/44/6 54/67/6 66/63/6
f 67/48/13 68/45/13 53/47/13
f 65/41/14 66/40/14 67/48/14
f 67/51/5 53/70/5 55/71/5
f 55/71/5 57/72/5 59/49/5
f 59/49/5 61/73/5 63/74/5
f 63/74/5 65/50/5 59/49/5
f 67/51/5 55/71/5 59/49/5
f 69/65/7 70/29/7 71/31/7
f 71/31/8 72/30/8 73/33/8
f 73/33/9 74/32/9 75/35/9
f 75/35/10 76/34/10 77/37/10
f 77/37/11 78/36/11 79/39/11
f 79/39/12 80/38/12 81/41/12
f 74/44/6 72/66/6 70/67/6
f 70/67/6 84/68/6 82/63/6
f 82/63/6 80/42/6 78/43/6
f 78/43/6 76/69/6 74/44/6
f 74/44/6 70/67/6 82/63/6
f 83/48/13 84/45/13 69/47/13
f 81/41/14 82/40/14 83/48/14
f 83/51/5 69/70/5 71/71/5
f 71/71/5 73/72/5 75/49/5
f 75/49/5 77/73/5 79/74/5
f 79/74/5 81/50/5 75/49/5
f 83/51/5 71/71/5 75/49/5
