# Made in Blockbench 4.9.3
mtllib flag.mtl

o Flag
v 0 4.25 -0.0625
v 0 4.25 -1.1875
v 0 5 -1.1875
v 0 5 -0.0625
vt 0 0.84
vt 1 0.84
vt 1 1
vt 0 1
vt 0 0.84
vt 1 1
vn 1 0 0
vn 1 0 0
usemtl none
f 1/1/1 2/2/1 3/3/1
f 4/4/2 1/5/2 3/6/2
o Pole
v -0.2500002581689108 0.12499999999999994 -0.4330128509461091
v -0.24999999999999967 0.12499999999999994 0.4330127018922186
v 0.5000002581689105 0.12499999999999994 1.4905389047100331e-7
v 0.43301270189221863 6.245004513516506e-17 0.24999999999999967
v -0.4330127018922186 6.245004513516506e-17 -0.24999999999999967
v 1.4905389043515238e-7 6.245004513516506e-17 -0.5000002581689105
v 0.0625 5.125 -0.0625
v -0.06249999999999999 5.125 -0.0625
v -0.06249999999999999 5.125 0.06249999999999999
v 0.4330128509461091 0.12499999999999994 -0.2500002581689108
v 0.24999999999999967 0.12499999999999994 -0.43301270189221863
v 1.4905389043515238e-7 0.12499999999999994 -0.5000002581689105
v -0.4330127018922186 0.12499999999999994 -0.24999999999999967
v -0.5000002581689105 0.12499999999999994 -1.4905389043399592e-7
v -0.4330128509461091 0.12499999999999994 0.2500002581689108
v -1.4905389044209127e-7 0.12499999999999994 0.5000002581689105
v 0.2500002581689108 0.12499999999999994 0.4330128509461091
v 0.43301270189221863 0.12499999999999994 0.24999999999999967
v 0.24999999999999967 6.245004513516506e-17 -0.43301270189221863
v 0.4330128509461091 6.245004513516506e-17 -0.2500002581689108
v 0.5000002581689105 6.245004513516506e-17 1.4905389047100331e-7
v 0.2500002581689108 6.245004513516506e-17 0.4330128509461091
v -1.4905389044209127e-7 6.245004513516506e-17 0.5000002581689105
v -0.24999999999999967 6.245004513516506e-17 0.4330127018922186
v -0.4330128509461091 6.245004513516506e-17 0.2500002581689108
v -0.5000002581689105 6.245004513516506e-17 -1.4905389043399592e-7
v -0.2500002581689108 6.245004513516506e-17 -0.4330128509461091
v 0.0625 5.125 0.06249999999999999
v 0.24999999999999967 0.12499999999999994 -0.43301270189221863
v 0.4330128509461091 0.12499999999999994 -0.2500002581689108
v 0.4330128509461091 6.245004513516506e-17 -0.2500002581689108
v 0.5000002581689105 0.12499999999999994 1.4905389047100331e-7
v 0.5000002581689105 6.245004513516506e-17 1.4905389047100331e-7
v 0.43301270189221863 0.12499999999999994 0.24999999999999967
v 0.43301270189221863 6.245004513516506e-17 0.24999999999999967
v 0.2500002581689108 0.12499999999999994 0.4330128509461091
v 0.2500002581689108 6.245004513516506e-17 0.4330128509461091
v -1.4905389044209127e-7 0.12499999999999994 0.5000002581689105
v -1.4905389044209127e-7 6.245004513516506e-17 0.5000002581689105
v -0.24999999999999967 0.12499999999999994 0.4330127018922186
v -0.24999999999999967 6.245004513516506e-17 0.4330127018922186
v -0.4330128509461091 0.12499999999999994 0.2500002581689108
v -0.4330128509461091 6.245004513516506e-17 0.2500002581689108
v -0.5000002581689105 0.12499999999999994 -1.4905389043399592e-7
v -0.5000002581689105 6.245004513516506e-17 -1.4905389043399592e-7
v -0.4330127018922186 0.12499999999999994 -0.24999999999999967
v -0.4330127018922186 6.245004513516506e-17 -0.24999999999999967
v -0.2500002581689108 0.12499999999999994 -0.4330128509461091
v -0.2500002581689108 6.245004513516506e-17 -0.4330128509461091
v 1.4905389043515238e-7 0.12499999999999994 -0.5000002581689105
v 0.24999999999999967 6.245004513516506e-17 -0.43301270189221863
v 1.4905389043515238e-7 6.245004513516506e-17 -0.5000002581689105
v -0.06249999999999999 5.125 -0.0625
v -0.06249999999999999 0.125 -0.0625
v -0.06249999999999999 0.125 0.06249999999999999
v 0.0625 5.125 -0.0625
v 0.0625 0.125 -0.0625
v 0.0625 5.125 0.06249999999999999
v 0.0625 0.125 0.06249999999999999
v -0.06249999999999999 5.125 0.06249999999999999
vt 0.257071 0.14732199999999995
vt 0.257071 0.012677999999999967
vt 0.985858 0.07999999999999996
vt 0.985858 0.07999999999999996
vt 0.014142 0.07999999999999996
vt 0.257071 0.012677999999999967
vt 0.125 1
vt 0 1
vt 0 0.98
vt 0.985858 0.07999999999999996
vt 0.920765 0.118869
vt 0.742929 0.14732199999999995
vt 0.742929 0.14732199999999995
vt 0.499999 0.15773700000000002
vt 0.257071 0.14732199999999995
vt 0.257071 0.14732199999999995
vt 0.079235 0.118869
vt 0.014142 0.07999999999999996
vt 0.014142 0.07999999999999996
vt 0.079235 0.04113100000000003
vt 0.257071 0.012677999999999967
vt 0.257071 0.012677999999999967
vt 0.5 0.002263000000000015
vt 0.742929 0.012677999999999967
vt 0.742929 0.012677999999999967
vt 0.920765 0.04113100000000003
vt 0.985858 0.07999999999999996
vt 0.985858 0.07999999999999996
vt 0.742929 0.14732199999999995
vt 0.257071 0.14732199999999995
vt 0.257071 0.14732199999999995
vt 0.014142 0.07999999999999996
vt 0.257071 0.012677999999999967
vt 0.257071 0.012677999999999967
vt 0.742929 0.012677999999999967
vt 0.985858 0.07999999999999996
vt 0.257071 0.012677999999999967
vt 0.5 0.002263000000000015
vt 0.742929 0.012677999999999967
vt 0.742929 0.012677999999999967
vt 0.920765 0.04113100000000003
vt 0.985858 0.07999999999999996
vt 0.985858 0.07999999999999996
vt 0.920765 0.118869
vt 0.742929 0.14732199999999995
vt 0.742929 0.14732199999999995
vt 0.499999 0.15773700000000002
vt 0.257071 0.14732199999999995
vt 0.257071 0.14732199999999995
vt 0.079235 0.118869
vt 0.014142 0.07999999999999996
vt 0.014142 0.07999999999999996
vt 0.079235 0.04113100000000003
vt 0.257071 0.012677999999999967
vt 0.257071 0.012677999999999967
vt 0.742929 0.012677999999999967
vt 0.985858 0.07999999999999996
vt 0.985858 0.07999999999999996
vt 0.742929 0.14732199999999995
vt 0.257071 0.14732199999999995
vt 0.257071 0.14732199999999995
vt 0.014142 0.07999999999999996
vt 0.985858 0.07999999999999996
vt 0.125 0.98
vt 0.125 1
vt 0 0.98
vt 0.875 0.17999999999999994
vt 0.625 0.17999999999999994
vt 0.625 0.16000000000000003
vt 0.625 0.17999999999999994
vt 0.375 0.17999999999999994
vt 0.375 0.16000000000000003
vt 0.375 0.17999999999999994
vt 0.125 0.17999999999999994
vt 0.125 0.16000000000000003
vt 0.875 0.17999999999999994
vt 0.625 0.17999999999999994
vt 0.625 0.16000000000000003
vt 0.625 0.17999999999999994
vt 0.375 0.17999999999999994
vt 0.375 0.16000000000000003
vt 0.375 0.17999999999999994
vt 0.125 0.17999999999999994
vt 0.125 0.16000000000000003
vt 0.875 0.17999999999999994
vt 0.625 0.17999999999999994
vt 0.625 0.16000000000000003
vt 0.625 0.17999999999999994
vt 0.375 0.17999999999999994
vt 0.375 0.16000000000000003
vt 0.375 0.17999999999999994
vt 0.125 0.17999999999999994
vt 0.125 0.16000000000000003
vt 0.125 0.17999999999999983
vt 0.375 0.17999999999999983
vt 0.375 0.15999999999999992
vt 0.625 0.17999999999999983
vt 0.875 0.17999999999999983
vt 0.875 0.15999999999999992
vt 0.375 0.17999999999999983
vt 0.625 0.17999999999999983
vt 0.625 0.15999999999999992
vt 0 0.98
vt 0 0.17999999999999994
vt 0.125 0.17999999999999994
vt 0.125 0.98
vt 0.125 0.17999999999999994
vt 0 0.17999999999999994
vt 0 0.98
vt 0 0.17999999999999994
vt 0.125 0.17999999999999994
vt 0.125 0.98
vt 0.125 0.17999999999999994
vt 0 0.17999999999999994
vt 0.875 0.16000000000000003
vt 0.875 0.17999999999999994
vt 0.625 0.16000000000000003
vt 0.625 0.16000000000000003
vt 0.625 0.17999999999999994
vt 0.375 0.16000000000000003
vt 0.375 0.16000000000000003
vt 0.375 0.17999999999999994
vt 0.125 0.16000000000000003
vt 0.875 0.16000000000000003
vt 0.875 0.17999999999999994
vt 0.625 0.16000000000000003
vt 0.625 0.16000000000000003
vt 0.625 0.17999999999999994
vt 0.375 0.16000000000000003
vt 0.375 0.16000000000000003
vt 0.375 0.17999999999999994
vt 0.125 0.16000000000000003
vt 0.875 0.16000000000000003
vt 0.875 0.17999999999999994
vt 0.625 0.16000000000000003
vt 0.625 0.16000000000000003
vt 0.625 0.17999999999999994
vt 0.375 0.16000000000000003
vt 0.375 0.16000000000000003
vt 0.375 0.17999999999999994
vt 0.125 0.16000000000000003
vt 0.125 0.15999999999999992
vt 0.125 0.17999999999999983
vt 0.375 0.15999999999999992
vt 0.625 0.15999999999999992
vt 0.625 0.17999999999999983
vt 0.875 0.15999999999999992
vt 0.375 0.15999999999999992
vt 0.375 0.17999999999999983
vt 0.625 0.15999999999999992
vt 0.125 0.98
vt 0 0.98
vt 0.125 0.17999999999999994
vt 0 0.98
vt 0.125 0.98
vt 0 0.17999999999999994
vt 0.125 0.98
vt 0 0.98
vt 0.125 0.17999999999999994
vt 0 0.98
vt 0.125 0.98
vt 0 0.17999999999999994
vn 0 1 0
vn 0 -1 0
vn 0 1 0
vn 0 1 0
vn 0 1 0
vn 0 1 0
vn 0 1 0
vn 0 1 0
vn 0 1 0
vn 0 1 0
vn 0 1 0
vn 0 1 0
vn 0 -1 0
vn 0 -1 0
vn 0 -1 0
vn 0 -1 0
vn 0 -1 0
vn 0 -1 0
vn 0 -1 0
vn 0 -1 0
vn 0 -1 0
vn 0 1 0
vn 0.7071059944918332 0 -0.7071075678803866
vn 0.9659258262890684 0 -0.25881904510252074
vn 0.9659255383383801 0 0.25882011974672786
vn 0.7071075678803866 0 0.7071059944918332
vn 0.25881904510252074 0 0.9659258262890684
vn -0.2588201197467281 0 0.9659255383383802
vn -0.7071059944918331 0 0.7071075678803868
vn -0.9659258262890684 0 0.25881904510252074
vn -0.9659255383383801 0 -0.25882011974672803
vn -0.7071075678803868 0 -0.7071059944918331
vn 0.2588201197467278 0 -0.9659255383383801
vn -0.25881904510252074 0 -0.9659258262890684
vn -1 0 0
vn 0 0 -1
vn 1 0 0
vn 0 0 1
vn 0.7071059944918332 0 -0.7071075678803866
vn 0.9659258262890684 0 -0.25881904510252074
vn 0.9659255383383801 0 0.25882011974672786
vn 0.7071075678803866 0 0.7071059944918332
vn 0.25881904510252074 0 0.9659258262890684
vn -0.2588201197467281 0 0.9659255383383802
vn -0.7071059944918331 0 0.7071075678803868
vn -0.9659258262890684 0 0.25881904510252074
vn -0.9659255383383801 0 -0.25882011974672803
vn -0.7071075678803868 0 -0.7071059944918331
vn 0.2588201197467278 0 -0.9659255383383801
vn -0.25881904510252074 0 -0.9659258262890684
vn -1 0 0
vn 0 0 -1
vn 1 0 0
vn 0 0 1
usemtl m_4137b5f5-31b6-3e02-15c4-cc60654f8504
f 5/7/3 6/8/3 7/9/3
f 8/10/4 9/11/4 10/12/4
f 11/13/5 12/14/5 13/15/5
f 7/16/6 14/17/6 15/18/6
f 15/19/7 16/20/7 5/21/7
f 5/22/8 17/23/8 18/24/8
f 18/25/9 19/26/9 6/27/9
f 6/28/10 20/29/10 21/30/10
f 21/31/11 22/32/11 7/33/11
f 7/34/12 15/35/12 5/36/12
f 5/37/13 18/38/13 6/39/13
f 6/40/14 21/41/14 7/42/14
f 10/43/15 23/44/15 24/45/15
f 24/46/16 25/47/16 8/48/16
f 8/49/17 26/50/17 27/51/17
f 27/52/18 28/53/18 29/54/18
f 29/55/19 30/56/19 9/57/19
f 9/58/20 31/59/20 10/60/20
f 10/61/21 24/62/21 8/63/21
f 8/64/22 27/65/22 29/66/22
f 29/67/23 9/68/23 8/69/23
f 32/70/24 11/71/24 13/72/24
f 33/73/25 34/74/25 35/75/25
f 34/76/26 36/77/26 37/78/26
f 36/79/27 38/80/27 39/81/27
f 38/82/28 40/83/28 41/84/28
f 40/85/29 42/86/29 43/87/29
f 42/88/30 44/89/30 45/90/30
f 44/91/31 46/92/31 47/93/31
f 46/94/32 48/95/32 49/96/32
f 48/97/33 50/98/33 51/99/33
f 50/100/34 52/101/34 53/102/34
f 54/103/35 33/104/35 55/105/35
f 52/106/36 54/107/36 56/108/36
f 57/109/37 58/110/37 59/111/37
f 60/112/38 61/113/38 58/114/38
f 62/115/39 63/116/39 61/117/39
f 64/118/40 59/119/40 63/120/40
f 55/121/41 33/122/41 35/123/41
f 35/124/42 34/125/42 37/126/42
f 37/127/43 36/128/43 39/129/43
f 39/130/44 38/131/44 41/132/44
f 41/133/45 40/134/45 43/135/45
f 43/136/46 42/137/46 45/138/46
f 45/139/47 44/140/47 47/141/47
f 47/142/48 46/143/48 49/144/48
f 49/145/49 48/146/49 51/147/49
f 51/148/50 50/149/50 53/150/50
f 56/151/51 54/152/51 55/153/51
f 53/154/52 52/155/52 56/156/52
f 64/157/53 57/158/53 59/159/53
f 57/160/54 60/161/54 58/162/54
f 60/163/55 62/164/55 61/165/55
f 62/166/56 64/167/56 63/168/56